<?xml version="1.0" encoding="utf-8" standalone="no"?>
<!DOCTYPE svg PUBLIC "-//W3C//DTD SVG 1.1//EN"
  "http://www.w3.org/Graphics/SVG/1.1/DTD/svg11.dtd">
<svg xmlns:xlink="http://www.w3.org/1999/xlink" width="338.4pt" height="338.4pt" viewBox="0 0 338.4 338.4" xmlns="http://www.w3.org/2000/svg" version="1.1">
 <metadata>
  <rdf:RDF xmlns:dc="http://purl.org/dc/elements/1.1/" xmlns:cc="http://creativecommons.org/ns#" xmlns:rdf="http://www.w3.org/1999/02/22-rdf-syntax-ns#">
   <cc:Work>
    <dc:type rdf:resource="http://purl.org/dc/dcmitype/StillImage"/>
    <dc:date>2022-06-26T18:30:25.635485</dc:date>
    <dc:format>image/svg+xml</dc:format>
    <dc:creator>
     <cc:Agent>
      <dc:title>Matplotlib v3.5.1, https://matplotlib.org/</dc:title>
     </cc:Agent>
    </dc:creator>
   </cc:Work>
  </rdf:RDF>
 </metadata>
 <defs>
  <style type="text/css">*{stroke-linejoin: round; stroke-linecap: butt}</style>
 </defs>
 <g id="figure_1">
  <g id="patch_1">
   <path d="M -0 338.4 
L 338.4 338.4 
L 338.4 0 
L -0 0 
z
" style="fill: #ffffff"/>
  </g>
  <g id="axes_1">
   <g id="patch_2">
    <path d="M 87.381818 251.018182 
L 120.109091 251.018182 
L 120.109091 218.290909 
L 87.381818 218.290909 
z
" clip-path="url(#p28a657f9f1)" style="fill: #dcdcdc; stroke: #dcdcdc; stroke-linejoin: miter"/>
   </g>
   <g id="patch_3">
    <path d="M 87.381818 218.290909 
L 120.109091 218.290909 
L 120.109091 185.563636 
L 87.381818 185.563636 
z
" clip-path="url(#p28a657f9f1)" style="fill: #dcdcdc; stroke: #dcdcdc; stroke-linejoin: miter"/>
   </g>
   <g id="patch_4">
    <path d="M 87.381818 185.563636 
L 120.109091 185.563636 
L 120.109091 152.836364 
L 87.381818 152.836364 
z
" clip-path="url(#p28a657f9f1)" style="fill: #dcdcdc; stroke: #dcdcdc; stroke-linejoin: miter"/>
   </g>
   <g id="patch_5">
    <path d="M 87.381818 152.836364 
L 120.109091 152.836364 
L 120.109091 120.109091 
L 87.381818 120.109091 
z
" clip-path="url(#p28a657f9f1)" style="fill: #dcdcdc; stroke: #dcdcdc; stroke-linejoin: miter"/>
   </g>
   <g id="patch_6">
    <path d="M 87.381818 120.109091 
L 120.109091 120.109091 
L 120.109091 87.381818 
L 87.381818 87.381818 
z
" clip-path="url(#p28a657f9f1)" style="fill: #dcdcdc; stroke: #dcdcdc; stroke-linejoin: miter"/>
   </g>
   <g id="patch_7">
    <path d="M 120.109091 251.018182 
L 152.836364 251.018182 
L 152.836364 218.290909 
L 120.109091 218.290909 
z
" clip-path="url(#p28a657f9f1)" style="fill: #dcdcdc; stroke: #dcdcdc; stroke-linejoin: miter"/>
   </g>
   <g id="patch_8">
    <path d="M 120.109091 218.290909 
L 152.836364 218.290909 
L 152.836364 185.563636 
L 120.109091 185.563636 
z
" clip-path="url(#p28a657f9f1)" style="fill: #dcdcdc; stroke: #dcdcdc; stroke-linejoin: miter"/>
   </g>
   <g id="patch_9">
    <path d="M 120.109091 185.563636 
L 152.836364 185.563636 
L 152.836364 152.836364 
L 120.109091 152.836364 
z
" clip-path="url(#p28a657f9f1)" style="fill: #dcdcdc; stroke: #dcdcdc; stroke-linejoin: miter"/>
   </g>
   <g id="patch_10">
    <path d="M 120.109091 152.836364 
L 152.836364 152.836364 
L 152.836364 120.109091 
L 120.109091 120.109091 
z
" clip-path="url(#p28a657f9f1)" style="fill: #dcdcdc; stroke: #dcdcdc; stroke-linejoin: miter"/>
   </g>
   <g id="patch_11">
    <path d="M 120.109091 120.109091 
L 152.836364 120.109091 
L 152.836364 87.381818 
L 120.109091 87.381818 
z
" clip-path="url(#p28a657f9f1)" style="fill: #dcdcdc; stroke: #dcdcdc; stroke-linejoin: miter"/>
   </g>
   <g id="patch_12">
    <path d="M 152.836364 251.018182 
L 185.563636 251.018182 
L 185.563636 218.290909 
L 152.836364 218.290909 
z
" clip-path="url(#p28a657f9f1)" style="fill: #dcdcdc; stroke: #dcdcdc; stroke-linejoin: miter"/>
   </g>
   <g id="patch_13">
    <path d="M 152.836364 218.290909 
L 185.563636 218.290909 
L 185.563636 185.563636 
L 152.836364 185.563636 
z
" clip-path="url(#p28a657f9f1)" style="fill: #dcdcdc; stroke: #dcdcdc; stroke-linejoin: miter"/>
   </g>
   <g id="patch_14">
    <path d="M 152.836364 185.563636 
L 185.563636 185.563636 
L 185.563636 152.836364 
L 152.836364 152.836364 
z
" clip-path="url(#p28a657f9f1)" style="fill: #dcdcdc; stroke: #dcdcdc; stroke-linejoin: miter"/>
   </g>
   <g id="patch_15">
    <path d="M 152.836364 185.563636 
L 185.563636 185.563636 
L 185.563636 152.836364 
L 152.836364 152.836364 
z
" clip-path="url(#p28a657f9f1)" style="fill: #dc2c41; stroke: #dc2c41; stroke-linejoin: miter"/>
   </g>
   <g id="patch_16">
    <path d="M 152.836364 152.836364 
L 185.563636 152.836364 
L 185.563636 120.109091 
L 152.836364 120.109091 
z
" clip-path="url(#p28a657f9f1)" style="fill: #dcdcdc; stroke: #dcdcdc; stroke-linejoin: miter"/>
   </g>
   <g id="patch_17">
    <path d="M 152.836364 120.109091 
L 185.563636 120.109091 
L 185.563636 87.381818 
L 152.836364 87.381818 
z
" clip-path="url(#p28a657f9f1)" style="fill: #dcdcdc; stroke: #dcdcdc; stroke-linejoin: miter"/>
   </g>
   <g id="patch_18">
    <path d="M 185.563636 251.018182 
L 218.290909 251.018182 
L 218.290909 218.290909 
L 185.563636 218.290909 
z
" clip-path="url(#p28a657f9f1)" style="fill: #dcdcdc; stroke: #dcdcdc; stroke-linejoin: miter"/>
   </g>
   <g id="patch_19">
    <path d="M 185.563636 218.290909 
L 218.290909 218.290909 
L 218.290909 185.563636 
L 185.563636 185.563636 
z
" clip-path="url(#p28a657f9f1)" style="fill: #dcdcdc; stroke: #dcdcdc; stroke-linejoin: miter"/>
   </g>
   <g id="patch_20">
    <path d="M 185.563636 185.563636 
L 218.290909 185.563636 
L 218.290909 152.836364 
L 185.563636 152.836364 
z
" clip-path="url(#p28a657f9f1)" style="fill: #dcdcdc; stroke: #dcdcdc; stroke-linejoin: miter"/>
   </g>
   <g id="patch_21">
    <path d="M 185.563636 152.836364 
L 218.290909 152.836364 
L 218.290909 120.109091 
L 185.563636 120.109091 
z
" clip-path="url(#p28a657f9f1)" style="fill: #dcdcdc; stroke: #dcdcdc; stroke-linejoin: miter"/>
   </g>
   <g id="patch_22">
    <path d="M 185.563636 120.109091 
L 218.290909 120.109091 
L 218.290909 87.381818 
L 185.563636 87.381818 
z
" clip-path="url(#p28a657f9f1)" style="fill: #dcdcdc; stroke: #dcdcdc; stroke-linejoin: miter"/>
   </g>
   <g id="patch_23">
    <path d="M 218.290909 251.018182 
L 251.018182 251.018182 
L 251.018182 218.290909 
L 218.290909 218.290909 
z
" clip-path="url(#p28a657f9f1)" style="fill: #dcdcdc; stroke: #dcdcdc; stroke-linejoin: miter"/>
   </g>
   <g id="patch_24">
    <path d="M 218.290909 218.290909 
L 251.018182 218.290909 
L 251.018182 185.563636 
L 218.290909 185.563636 
z
" clip-path="url(#p28a657f9f1)" style="fill: #dcdcdc; stroke: #dcdcdc; stroke-linejoin: miter"/>
   </g>
   <g id="patch_25">
    <path d="M 218.290909 185.563636 
L 251.018182 185.563636 
L 251.018182 152.836364 
L 218.290909 152.836364 
z
" clip-path="url(#p28a657f9f1)" style="fill: #dcdcdc; stroke: #dcdcdc; stroke-linejoin: miter"/>
   </g>
   <g id="patch_26">
    <path d="M 218.290909 152.836364 
L 251.018182 152.836364 
L 251.018182 120.109091 
L 218.290909 120.109091 
z
" clip-path="url(#p28a657f9f1)" style="fill: #dcdcdc; stroke: #dcdcdc; stroke-linejoin: miter"/>
   </g>
   <g id="patch_27">
    <path d="M 218.290909 120.109091 
L 251.018182 120.109091 
L 251.018182 87.381818 
L 218.290909 87.381818 
z
" clip-path="url(#p28a657f9f1)" style="fill: #dcdcdc; stroke: #dcdcdc; stroke-linejoin: miter"/>
   </g>
   <g id="patch_28">
    <path d="M 169.2 267.381818 
C 195.238123 267.381818 220.213296 257.036762 238.625029 238.625029 
C 257.036762 220.213296 267.381818 195.238123 267.381818 169.2 
C 267.381818 143.161877 257.036762 118.186704 238.625029 99.774971 
C 220.213296 81.363238 195.238123 71.018182 169.2 71.018182 
C 143.161877 71.018182 118.186704 81.363238 99.774971 99.774971 
C 81.363238 118.186704 71.018182 143.161877 71.018182 169.2 
C 71.018182 195.238123 81.363238 220.213296 99.774971 238.625029 
C 118.186704 257.036762 143.161877 267.381818 169.2 267.381818 
L 169.2 267.381818 
z
" clip-path="url(#p28a657f9f1)" style="fill: none; stroke: #dc2c41; stroke-width: 3; stroke-linejoin: miter"/>
   </g>
   <g id="line2d_1">
    <path d="M 21.927273 316.472727 
L 54.654545 316.472727 
L 54.654545 283.745455 
L 21.927273 283.745455 
L 21.927273 316.472727 
" clip-path="url(#p28a657f9f1)" style="fill: none; stroke: #000000; stroke-width: 1.5; stroke-linecap: square"/>
   </g>
   <g id="line2d_2">
    <defs>
     <path id="m24ca0d2edf" d="M 0 1.5 
C 0.397805 1.5 0.77937 1.341951 1.06066 1.06066 
C 1.341951 0.77937 1.5 0.397805 1.5 0 
C 1.5 -0.397805 1.341951 -0.77937 1.06066 -1.06066 
C 0.77937 -1.341951 0.397805 -1.5 0 -1.5 
C -0.397805 -1.5 -0.77937 -1.341951 -1.06066 -1.06066 
C -1.341951 -0.77937 -1.5 -0.397805 -1.5 0 
C -1.5 0.397805 -1.341951 0.77937 -1.06066 1.06066 
C -0.77937 1.341951 -0.397805 1.5 0 1.5 
z
" style="stroke: #5c5c5c"/>
    </defs>
    <g clip-path="url(#p28a657f9f1)">
     <use xlink:href="#m24ca0d2edf" x="38.290909" y="300.109091" style="fill: #5c5c5c; stroke: #5c5c5c"/>
    </g>
   </g>
   <g id="line2d_3">
    <path d="M 21.927273 283.745455 
L 54.654545 283.745455 
L 54.654545 251.018182 
L 21.927273 251.018182 
L 21.927273 283.745455 
" clip-path="url(#p28a657f9f1)" style="fill: none; stroke: #000000; stroke-width: 1.5; stroke-linecap: square"/>
   </g>
   <g id="line2d_4">
    <g clip-path="url(#p28a657f9f1)">
     <use xlink:href="#m24ca0d2edf" x="38.290909" y="267.381818" style="fill: #5c5c5c; stroke: #5c5c5c"/>
    </g>
   </g>
   <g id="line2d_5">
    <path d="M 21.927273 251.018182 
L 54.654545 251.018182 
L 54.654545 218.290909 
L 21.927273 218.290909 
L 21.927273 251.018182 
" clip-path="url(#p28a657f9f1)" style="fill: none; stroke: #000000; stroke-width: 1.5; stroke-linecap: square"/>
   </g>
   <g id="line2d_6">
    <g clip-path="url(#p28a657f9f1)">
     <use xlink:href="#m24ca0d2edf" x="38.290909" y="234.654545" style="fill: #5c5c5c; stroke: #5c5c5c"/>
    </g>
   </g>
   <g id="line2d_7">
    <path d="M 21.927273 218.290909 
L 54.654545 218.290909 
L 54.654545 185.563636 
L 21.927273 185.563636 
L 21.927273 218.290909 
" clip-path="url(#p28a657f9f1)" style="fill: none; stroke: #000000; stroke-width: 1.5; stroke-linecap: square"/>
   </g>
   <g id="line2d_8">
    <g clip-path="url(#p28a657f9f1)">
     <use xlink:href="#m24ca0d2edf" x="38.290909" y="201.927273" style="fill: #5c5c5c; stroke: #5c5c5c"/>
    </g>
   </g>
   <g id="line2d_9">
    <path d="M 21.927273 185.563636 
L 54.654545 185.563636 
L 54.654545 152.836364 
L 21.927273 152.836364 
L 21.927273 185.563636 
" clip-path="url(#p28a657f9f1)" style="fill: none; stroke: #000000; stroke-width: 1.5; stroke-linecap: square"/>
   </g>
   <g id="line2d_10">
    <g clip-path="url(#p28a657f9f1)">
     <use xlink:href="#m24ca0d2edf" x="38.290909" y="169.2" style="fill: #5c5c5c; stroke: #5c5c5c"/>
    </g>
   </g>
   <g id="line2d_11">
    <path d="M 21.927273 152.836364 
L 54.654545 152.836364 
L 54.654545 120.109091 
L 21.927273 120.109091 
L 21.927273 152.836364 
" clip-path="url(#p28a657f9f1)" style="fill: none; stroke: #000000; stroke-width: 1.5; stroke-linecap: square"/>
   </g>
   <g id="line2d_12">
    <g clip-path="url(#p28a657f9f1)">
     <use xlink:href="#m24ca0d2edf" x="38.290909" y="136.472727" style="fill: #5c5c5c; stroke: #5c5c5c"/>
    </g>
   </g>
   <g id="line2d_13">
    <path d="M 21.927273 120.109091 
L 54.654545 120.109091 
L 54.654545 87.381818 
L 21.927273 87.381818 
L 21.927273 120.109091 
" clip-path="url(#p28a657f9f1)" style="fill: none; stroke: #000000; stroke-width: 1.5; stroke-linecap: square"/>
   </g>
   <g id="line2d_14">
    <g clip-path="url(#p28a657f9f1)">
     <use xlink:href="#m24ca0d2edf" x="38.290909" y="103.745455" style="fill: #5c5c5c; stroke: #5c5c5c"/>
    </g>
   </g>
   <g id="line2d_15">
    <path d="M 21.927273 87.381818 
L 54.654545 87.381818 
L 54.654545 54.654545 
L 21.927273 54.654545 
L 21.927273 87.381818 
" clip-path="url(#p28a657f9f1)" style="fill: none; stroke: #000000; stroke-width: 1.5; stroke-linecap: square"/>
   </g>
   <g id="line2d_16">
    <g clip-path="url(#p28a657f9f1)">
     <use xlink:href="#m24ca0d2edf" x="38.290909" y="71.018182" style="fill: #5c5c5c; stroke: #5c5c5c"/>
    </g>
   </g>
   <g id="line2d_17">
    <path d="M 21.927273 54.654545 
L 54.654545 54.654545 
L 54.654545 21.927273 
L 21.927273 21.927273 
L 21.927273 54.654545 
" clip-path="url(#p28a657f9f1)" style="fill: none; stroke: #000000; stroke-width: 1.5; stroke-linecap: square"/>
   </g>
   <g id="line2d_18">
    <g clip-path="url(#p28a657f9f1)">
     <use xlink:href="#m24ca0d2edf" x="38.290909" y="38.290909" style="fill: #5c5c5c; stroke: #5c5c5c"/>
    </g>
   </g>
   <g id="line2d_19">
    <path d="M 54.654545 316.472727 
L 87.381818 316.472727 
L 87.381818 283.745455 
L 54.654545 283.745455 
L 54.654545 316.472727 
" clip-path="url(#p28a657f9f1)" style="fill: none; stroke: #000000; stroke-width: 1.5; stroke-linecap: square"/>
   </g>
   <g id="line2d_20">
    <g clip-path="url(#p28a657f9f1)">
     <use xlink:href="#m24ca0d2edf" x="71.018182" y="300.109091" style="fill: #5c5c5c; stroke: #5c5c5c"/>
    </g>
   </g>
   <g id="line2d_21">
    <path d="M 54.654545 283.745455 
L 87.381818 283.745455 
L 87.381818 251.018182 
L 54.654545 251.018182 
L 54.654545 283.745455 
" clip-path="url(#p28a657f9f1)" style="fill: none; stroke: #000000; stroke-width: 1.5; stroke-linecap: square"/>
   </g>
   <g id="line2d_22">
    <g clip-path="url(#p28a657f9f1)">
     <use xlink:href="#m24ca0d2edf" x="71.018182" y="267.381818" style="fill: #5c5c5c; stroke: #5c5c5c"/>
    </g>
   </g>
   <g id="line2d_23">
    <path d="M 54.654545 251.018182 
L 87.381818 251.018182 
L 87.381818 218.290909 
L 54.654545 218.290909 
L 54.654545 251.018182 
" clip-path="url(#p28a657f9f1)" style="fill: none; stroke: #000000; stroke-width: 1.5; stroke-linecap: square"/>
   </g>
   <g id="line2d_24">
    <g clip-path="url(#p28a657f9f1)">
     <use xlink:href="#m24ca0d2edf" x="71.018182" y="234.654545" style="fill: #5c5c5c; stroke: #5c5c5c"/>
    </g>
   </g>
   <g id="line2d_25">
    <path d="M 54.654545 218.290909 
L 87.381818 218.290909 
L 87.381818 185.563636 
L 54.654545 185.563636 
L 54.654545 218.290909 
" clip-path="url(#p28a657f9f1)" style="fill: none; stroke: #000000; stroke-width: 1.5; stroke-linecap: square"/>
   </g>
   <g id="line2d_26">
    <g clip-path="url(#p28a657f9f1)">
     <use xlink:href="#m24ca0d2edf" x="71.018182" y="201.927273" style="fill: #5c5c5c; stroke: #5c5c5c"/>
    </g>
   </g>
   <g id="line2d_27">
    <path d="M 54.654545 185.563636 
L 87.381818 185.563636 
L 87.381818 152.836364 
L 54.654545 152.836364 
L 54.654545 185.563636 
" clip-path="url(#p28a657f9f1)" style="fill: none; stroke: #000000; stroke-width: 1.5; stroke-linecap: square"/>
   </g>
   <g id="line2d_28">
    <g clip-path="url(#p28a657f9f1)">
     <use xlink:href="#m24ca0d2edf" x="71.018182" y="169.2" style="fill: #5c5c5c; stroke: #5c5c5c"/>
    </g>
   </g>
   <g id="line2d_29">
    <path d="M 54.654545 152.836364 
L 87.381818 152.836364 
L 87.381818 120.109091 
L 54.654545 120.109091 
L 54.654545 152.836364 
" clip-path="url(#p28a657f9f1)" style="fill: none; stroke: #000000; stroke-width: 1.5; stroke-linecap: square"/>
   </g>
   <g id="line2d_30">
    <g clip-path="url(#p28a657f9f1)">
     <use xlink:href="#m24ca0d2edf" x="71.018182" y="136.472727" style="fill: #5c5c5c; stroke: #5c5c5c"/>
    </g>
   </g>
   <g id="line2d_31">
    <path d="M 54.654545 120.109091 
L 87.381818 120.109091 
L 87.381818 87.381818 
L 54.654545 87.381818 
L 54.654545 120.109091 
" clip-path="url(#p28a657f9f1)" style="fill: none; stroke: #000000; stroke-width: 1.5; stroke-linecap: square"/>
   </g>
   <g id="line2d_32">
    <g clip-path="url(#p28a657f9f1)">
     <use xlink:href="#m24ca0d2edf" x="71.018182" y="103.745455" style="fill: #5c5c5c; stroke: #5c5c5c"/>
    </g>
   </g>
   <g id="line2d_33">
    <path d="M 54.654545 87.381818 
L 87.381818 87.381818 
L 87.381818 54.654545 
L 54.654545 54.654545 
L 54.654545 87.381818 
" clip-path="url(#p28a657f9f1)" style="fill: none; stroke: #000000; stroke-width: 1.5; stroke-linecap: square"/>
   </g>
   <g id="line2d_34">
    <g clip-path="url(#p28a657f9f1)">
     <use xlink:href="#m24ca0d2edf" x="71.018182" y="71.018182" style="fill: #5c5c5c; stroke: #5c5c5c"/>
    </g>
   </g>
   <g id="line2d_35">
    <path d="M 54.654545 54.654545 
L 87.381818 54.654545 
L 87.381818 21.927273 
L 54.654545 21.927273 
L 54.654545 54.654545 
" clip-path="url(#p28a657f9f1)" style="fill: none; stroke: #000000; stroke-width: 1.5; stroke-linecap: square"/>
   </g>
   <g id="line2d_36">
    <g clip-path="url(#p28a657f9f1)">
     <use xlink:href="#m24ca0d2edf" x="71.018182" y="38.290909" style="fill: #5c5c5c; stroke: #5c5c5c"/>
    </g>
   </g>
   <g id="line2d_37">
    <path d="M 87.381818 316.472727 
L 120.109091 316.472727 
L 120.109091 283.745455 
L 87.381818 283.745455 
L 87.381818 316.472727 
" clip-path="url(#p28a657f9f1)" style="fill: none; stroke: #000000; stroke-width: 1.5; stroke-linecap: square"/>
   </g>
   <g id="line2d_38">
    <g clip-path="url(#p28a657f9f1)">
     <use xlink:href="#m24ca0d2edf" x="103.745455" y="300.109091" style="fill: #5c5c5c; stroke: #5c5c5c"/>
    </g>
   </g>
   <g id="line2d_39">
    <path d="M 87.381818 283.745455 
L 120.109091 283.745455 
L 120.109091 251.018182 
L 87.381818 251.018182 
L 87.381818 283.745455 
" clip-path="url(#p28a657f9f1)" style="fill: none; stroke: #000000; stroke-width: 1.5; stroke-linecap: square"/>
   </g>
   <g id="line2d_40">
    <g clip-path="url(#p28a657f9f1)">
     <use xlink:href="#m24ca0d2edf" x="103.745455" y="267.381818" style="fill: #5c5c5c; stroke: #5c5c5c"/>
    </g>
   </g>
   <g id="line2d_41">
    <path d="M 87.381818 251.018182 
L 120.109091 251.018182 
L 120.109091 218.290909 
L 87.381818 218.290909 
L 87.381818 251.018182 
" clip-path="url(#p28a657f9f1)" style="fill: none; stroke: #000000; stroke-width: 1.5; stroke-linecap: square"/>
   </g>
   <g id="line2d_42">
    <g clip-path="url(#p28a657f9f1)">
     <use xlink:href="#m24ca0d2edf" x="103.745455" y="234.654545" style="fill: #5c5c5c; stroke: #5c5c5c"/>
    </g>
   </g>
   <g id="line2d_43">
    <path d="M 87.381818 218.290909 
L 120.109091 218.290909 
L 120.109091 185.563636 
L 87.381818 185.563636 
L 87.381818 218.290909 
" clip-path="url(#p28a657f9f1)" style="fill: none; stroke: #000000; stroke-width: 1.5; stroke-linecap: square"/>
   </g>
   <g id="line2d_44">
    <g clip-path="url(#p28a657f9f1)">
     <use xlink:href="#m24ca0d2edf" x="103.745455" y="201.927273" style="fill: #5c5c5c; stroke: #5c5c5c"/>
    </g>
   </g>
   <g id="line2d_45">
    <path d="M 87.381818 185.563636 
L 120.109091 185.563636 
L 120.109091 152.836364 
L 87.381818 152.836364 
L 87.381818 185.563636 
" clip-path="url(#p28a657f9f1)" style="fill: none; stroke: #000000; stroke-width: 1.5; stroke-linecap: square"/>
   </g>
   <g id="line2d_46">
    <g clip-path="url(#p28a657f9f1)">
     <use xlink:href="#m24ca0d2edf" x="103.745455" y="169.2" style="fill: #5c5c5c; stroke: #5c5c5c"/>
    </g>
   </g>
   <g id="line2d_47">
    <path d="M 87.381818 152.836364 
L 120.109091 152.836364 
L 120.109091 120.109091 
L 87.381818 120.109091 
L 87.381818 152.836364 
" clip-path="url(#p28a657f9f1)" style="fill: none; stroke: #000000; stroke-width: 1.5; stroke-linecap: square"/>
   </g>
   <g id="line2d_48">
    <g clip-path="url(#p28a657f9f1)">
     <use xlink:href="#m24ca0d2edf" x="103.745455" y="136.472727" style="fill: #5c5c5c; stroke: #5c5c5c"/>
    </g>
   </g>
   <g id="line2d_49">
    <path d="M 87.381818 120.109091 
L 120.109091 120.109091 
L 120.109091 87.381818 
L 87.381818 87.381818 
L 87.381818 120.109091 
" clip-path="url(#p28a657f9f1)" style="fill: none; stroke: #000000; stroke-width: 1.5; stroke-linecap: square"/>
   </g>
   <g id="line2d_50">
    <g clip-path="url(#p28a657f9f1)">
     <use xlink:href="#m24ca0d2edf" x="103.745455" y="103.745455" style="fill: #5c5c5c; stroke: #5c5c5c"/>
    </g>
   </g>
   <g id="line2d_51">
    <path d="M 87.381818 87.381818 
L 120.109091 87.381818 
L 120.109091 54.654545 
L 87.381818 54.654545 
L 87.381818 87.381818 
" clip-path="url(#p28a657f9f1)" style="fill: none; stroke: #000000; stroke-width: 1.5; stroke-linecap: square"/>
   </g>
   <g id="line2d_52">
    <g clip-path="url(#p28a657f9f1)">
     <use xlink:href="#m24ca0d2edf" x="103.745455" y="71.018182" style="fill: #5c5c5c; stroke: #5c5c5c"/>
    </g>
   </g>
   <g id="line2d_53">
    <path d="M 87.381818 54.654545 
L 120.109091 54.654545 
L 120.109091 21.927273 
L 87.381818 21.927273 
L 87.381818 54.654545 
" clip-path="url(#p28a657f9f1)" style="fill: none; stroke: #000000; stroke-width: 1.5; stroke-linecap: square"/>
   </g>
   <g id="line2d_54">
    <g clip-path="url(#p28a657f9f1)">
     <use xlink:href="#m24ca0d2edf" x="103.745455" y="38.290909" style="fill: #5c5c5c; stroke: #5c5c5c"/>
    </g>
   </g>
   <g id="line2d_55">
    <path d="M 120.109091 316.472727 
L 152.836364 316.472727 
L 152.836364 283.745455 
L 120.109091 283.745455 
L 120.109091 316.472727 
" clip-path="url(#p28a657f9f1)" style="fill: none; stroke: #000000; stroke-width: 1.5; stroke-linecap: square"/>
   </g>
   <g id="line2d_56">
    <g clip-path="url(#p28a657f9f1)">
     <use xlink:href="#m24ca0d2edf" x="136.472727" y="300.109091" style="fill: #5c5c5c; stroke: #5c5c5c"/>
    </g>
   </g>
   <g id="line2d_57">
    <path d="M 120.109091 283.745455 
L 152.836364 283.745455 
L 152.836364 251.018182 
L 120.109091 251.018182 
L 120.109091 283.745455 
" clip-path="url(#p28a657f9f1)" style="fill: none; stroke: #000000; stroke-width: 1.5; stroke-linecap: square"/>
   </g>
   <g id="line2d_58">
    <g clip-path="url(#p28a657f9f1)">
     <use xlink:href="#m24ca0d2edf" x="136.472727" y="267.381818" style="fill: #5c5c5c; stroke: #5c5c5c"/>
    </g>
   </g>
   <g id="line2d_59">
    <path d="M 120.109091 251.018182 
L 152.836364 251.018182 
L 152.836364 218.290909 
L 120.109091 218.290909 
L 120.109091 251.018182 
" clip-path="url(#p28a657f9f1)" style="fill: none; stroke: #000000; stroke-width: 1.5; stroke-linecap: square"/>
   </g>
   <g id="line2d_60">
    <g clip-path="url(#p28a657f9f1)">
     <use xlink:href="#m24ca0d2edf" x="136.472727" y="234.654545" style="fill: #5c5c5c; stroke: #5c5c5c"/>
    </g>
   </g>
   <g id="line2d_61">
    <path d="M 120.109091 218.290909 
L 152.836364 218.290909 
L 152.836364 185.563636 
L 120.109091 185.563636 
L 120.109091 218.290909 
" clip-path="url(#p28a657f9f1)" style="fill: none; stroke: #000000; stroke-width: 1.5; stroke-linecap: square"/>
   </g>
   <g id="line2d_62">
    <g clip-path="url(#p28a657f9f1)">
     <use xlink:href="#m24ca0d2edf" x="136.472727" y="201.927273" style="fill: #5c5c5c; stroke: #5c5c5c"/>
    </g>
   </g>
   <g id="line2d_63">
    <path d="M 120.109091 185.563636 
L 152.836364 185.563636 
L 152.836364 152.836364 
L 120.109091 152.836364 
L 120.109091 185.563636 
" clip-path="url(#p28a657f9f1)" style="fill: none; stroke: #000000; stroke-width: 1.5; stroke-linecap: square"/>
   </g>
   <g id="line2d_64">
    <g clip-path="url(#p28a657f9f1)">
     <use xlink:href="#m24ca0d2edf" x="136.472727" y="169.2" style="fill: #5c5c5c; stroke: #5c5c5c"/>
    </g>
   </g>
   <g id="line2d_65">
    <path d="M 120.109091 152.836364 
L 152.836364 152.836364 
L 152.836364 120.109091 
L 120.109091 120.109091 
L 120.109091 152.836364 
" clip-path="url(#p28a657f9f1)" style="fill: none; stroke: #000000; stroke-width: 1.5; stroke-linecap: square"/>
   </g>
   <g id="line2d_66">
    <g clip-path="url(#p28a657f9f1)">
     <use xlink:href="#m24ca0d2edf" x="136.472727" y="136.472727" style="fill: #5c5c5c; stroke: #5c5c5c"/>
    </g>
   </g>
   <g id="line2d_67">
    <path d="M 120.109091 120.109091 
L 152.836364 120.109091 
L 152.836364 87.381818 
L 120.109091 87.381818 
L 120.109091 120.109091 
" clip-path="url(#p28a657f9f1)" style="fill: none; stroke: #000000; stroke-width: 1.5; stroke-linecap: square"/>
   </g>
   <g id="line2d_68">
    <g clip-path="url(#p28a657f9f1)">
     <use xlink:href="#m24ca0d2edf" x="136.472727" y="103.745455" style="fill: #5c5c5c; stroke: #5c5c5c"/>
    </g>
   </g>
   <g id="line2d_69">
    <path d="M 120.109091 87.381818 
L 152.836364 87.381818 
L 152.836364 54.654545 
L 120.109091 54.654545 
L 120.109091 87.381818 
" clip-path="url(#p28a657f9f1)" style="fill: none; stroke: #000000; stroke-width: 1.5; stroke-linecap: square"/>
   </g>
   <g id="line2d_70">
    <g clip-path="url(#p28a657f9f1)">
     <use xlink:href="#m24ca0d2edf" x="136.472727" y="71.018182" style="fill: #5c5c5c; stroke: #5c5c5c"/>
    </g>
   </g>
   <g id="line2d_71">
    <path d="M 120.109091 54.654545 
L 152.836364 54.654545 
L 152.836364 21.927273 
L 120.109091 21.927273 
L 120.109091 54.654545 
" clip-path="url(#p28a657f9f1)" style="fill: none; stroke: #000000; stroke-width: 1.5; stroke-linecap: square"/>
   </g>
   <g id="line2d_72">
    <g clip-path="url(#p28a657f9f1)">
     <use xlink:href="#m24ca0d2edf" x="136.472727" y="38.290909" style="fill: #5c5c5c; stroke: #5c5c5c"/>
    </g>
   </g>
   <g id="line2d_73">
    <path d="M 152.836364 316.472727 
L 185.563636 316.472727 
L 185.563636 283.745455 
L 152.836364 283.745455 
L 152.836364 316.472727 
" clip-path="url(#p28a657f9f1)" style="fill: none; stroke: #000000; stroke-width: 1.5; stroke-linecap: square"/>
   </g>
   <g id="line2d_74">
    <g clip-path="url(#p28a657f9f1)">
     <use xlink:href="#m24ca0d2edf" x="169.2" y="300.109091" style="fill: #5c5c5c; stroke: #5c5c5c"/>
    </g>
   </g>
   <g id="line2d_75">
    <path d="M 152.836364 283.745455 
L 185.563636 283.745455 
L 185.563636 251.018182 
L 152.836364 251.018182 
L 152.836364 283.745455 
" clip-path="url(#p28a657f9f1)" style="fill: none; stroke: #000000; stroke-width: 1.5; stroke-linecap: square"/>
   </g>
   <g id="line2d_76">
    <g clip-path="url(#p28a657f9f1)">
     <use xlink:href="#m24ca0d2edf" x="169.2" y="267.381818" style="fill: #5c5c5c; stroke: #5c5c5c"/>
    </g>
   </g>
   <g id="line2d_77">
    <path d="M 152.836364 251.018182 
L 185.563636 251.018182 
L 185.563636 218.290909 
L 152.836364 218.290909 
L 152.836364 251.018182 
" clip-path="url(#p28a657f9f1)" style="fill: none; stroke: #000000; stroke-width: 1.5; stroke-linecap: square"/>
   </g>
   <g id="line2d_78">
    <g clip-path="url(#p28a657f9f1)">
     <use xlink:href="#m24ca0d2edf" x="169.2" y="234.654545" style="fill: #5c5c5c; stroke: #5c5c5c"/>
    </g>
   </g>
   <g id="line2d_79">
    <path d="M 152.836364 218.290909 
L 185.563636 218.290909 
L 185.563636 185.563636 
L 152.836364 185.563636 
L 152.836364 218.290909 
" clip-path="url(#p28a657f9f1)" style="fill: none; stroke: #000000; stroke-width: 1.5; stroke-linecap: square"/>
   </g>
   <g id="line2d_80">
    <g clip-path="url(#p28a657f9f1)">
     <use xlink:href="#m24ca0d2edf" x="169.2" y="201.927273" style="fill: #5c5c5c; stroke: #5c5c5c"/>
    </g>
   </g>
   <g id="line2d_81">
    <path d="M 152.836364 185.563636 
L 185.563636 185.563636 
L 185.563636 152.836364 
L 152.836364 152.836364 
L 152.836364 185.563636 
" clip-path="url(#p28a657f9f1)" style="fill: none; stroke: #000000; stroke-width: 1.5; stroke-linecap: square"/>
   </g>
   <g id="line2d_82">
    <g clip-path="url(#p28a657f9f1)">
     <use xlink:href="#m24ca0d2edf" x="169.2" y="169.2" style="fill: #5c5c5c; stroke: #5c5c5c"/>
    </g>
   </g>
   <g id="line2d_83">
    <path d="M 152.836364 152.836364 
L 185.563636 152.836364 
L 185.563636 120.109091 
L 152.836364 120.109091 
L 152.836364 152.836364 
" clip-path="url(#p28a657f9f1)" style="fill: none; stroke: #000000; stroke-width: 1.5; stroke-linecap: square"/>
   </g>
   <g id="line2d_84">
    <g clip-path="url(#p28a657f9f1)">
     <use xlink:href="#m24ca0d2edf" x="169.2" y="136.472727" style="fill: #5c5c5c; stroke: #5c5c5c"/>
    </g>
   </g>
   <g id="line2d_85">
    <path d="M 152.836364 120.109091 
L 185.563636 120.109091 
L 185.563636 87.381818 
L 152.836364 87.381818 
L 152.836364 120.109091 
" clip-path="url(#p28a657f9f1)" style="fill: none; stroke: #000000; stroke-width: 1.5; stroke-linecap: square"/>
   </g>
   <g id="line2d_86">
    <g clip-path="url(#p28a657f9f1)">
     <use xlink:href="#m24ca0d2edf" x="169.2" y="103.745455" style="fill: #5c5c5c; stroke: #5c5c5c"/>
    </g>
   </g>
   <g id="line2d_87">
    <path d="M 152.836364 87.381818 
L 185.563636 87.381818 
L 185.563636 54.654545 
L 152.836364 54.654545 
L 152.836364 87.381818 
" clip-path="url(#p28a657f9f1)" style="fill: none; stroke: #000000; stroke-width: 1.5; stroke-linecap: square"/>
   </g>
   <g id="line2d_88">
    <g clip-path="url(#p28a657f9f1)">
     <use xlink:href="#m24ca0d2edf" x="169.2" y="71.018182" style="fill: #5c5c5c; stroke: #5c5c5c"/>
    </g>
   </g>
   <g id="line2d_89">
    <path d="M 152.836364 54.654545 
L 185.563636 54.654545 
L 185.563636 21.927273 
L 152.836364 21.927273 
L 152.836364 54.654545 
" clip-path="url(#p28a657f9f1)" style="fill: none; stroke: #000000; stroke-width: 1.5; stroke-linecap: square"/>
   </g>
   <g id="line2d_90">
    <g clip-path="url(#p28a657f9f1)">
     <use xlink:href="#m24ca0d2edf" x="169.2" y="38.290909" style="fill: #5c5c5c; stroke: #5c5c5c"/>
    </g>
   </g>
   <g id="line2d_91">
    <path d="M 185.563636 316.472727 
L 218.290909 316.472727 
L 218.290909 283.745455 
L 185.563636 283.745455 
L 185.563636 316.472727 
" clip-path="url(#p28a657f9f1)" style="fill: none; stroke: #000000; stroke-width: 1.5; stroke-linecap: square"/>
   </g>
   <g id="line2d_92">
    <g clip-path="url(#p28a657f9f1)">
     <use xlink:href="#m24ca0d2edf" x="201.927273" y="300.109091" style="fill: #5c5c5c; stroke: #5c5c5c"/>
    </g>
   </g>
   <g id="line2d_93">
    <path d="M 185.563636 283.745455 
L 218.290909 283.745455 
L 218.290909 251.018182 
L 185.563636 251.018182 
L 185.563636 283.745455 
" clip-path="url(#p28a657f9f1)" style="fill: none; stroke: #000000; stroke-width: 1.5; stroke-linecap: square"/>
   </g>
   <g id="line2d_94">
    <g clip-path="url(#p28a657f9f1)">
     <use xlink:href="#m24ca0d2edf" x="201.927273" y="267.381818" style="fill: #5c5c5c; stroke: #5c5c5c"/>
    </g>
   </g>
   <g id="line2d_95">
    <path d="M 185.563636 251.018182 
L 218.290909 251.018182 
L 218.290909 218.290909 
L 185.563636 218.290909 
L 185.563636 251.018182 
" clip-path="url(#p28a657f9f1)" style="fill: none; stroke: #000000; stroke-width: 1.5; stroke-linecap: square"/>
   </g>
   <g id="line2d_96">
    <g clip-path="url(#p28a657f9f1)">
     <use xlink:href="#m24ca0d2edf" x="201.927273" y="234.654545" style="fill: #5c5c5c; stroke: #5c5c5c"/>
    </g>
   </g>
   <g id="line2d_97">
    <path d="M 185.563636 218.290909 
L 218.290909 218.290909 
L 218.290909 185.563636 
L 185.563636 185.563636 
L 185.563636 218.290909 
" clip-path="url(#p28a657f9f1)" style="fill: none; stroke: #000000; stroke-width: 1.5; stroke-linecap: square"/>
   </g>
   <g id="line2d_98">
    <g clip-path="url(#p28a657f9f1)">
     <use xlink:href="#m24ca0d2edf" x="201.927273" y="201.927273" style="fill: #5c5c5c; stroke: #5c5c5c"/>
    </g>
   </g>
   <g id="line2d_99">
    <path d="M 185.563636 185.563636 
L 218.290909 185.563636 
L 218.290909 152.836364 
L 185.563636 152.836364 
L 185.563636 185.563636 
" clip-path="url(#p28a657f9f1)" style="fill: none; stroke: #000000; stroke-width: 1.5; stroke-linecap: square"/>
   </g>
   <g id="line2d_100">
    <g clip-path="url(#p28a657f9f1)">
     <use xlink:href="#m24ca0d2edf" x="201.927273" y="169.2" style="fill: #5c5c5c; stroke: #5c5c5c"/>
    </g>
   </g>
   <g id="line2d_101">
    <path d="M 185.563636 152.836364 
L 218.290909 152.836364 
L 218.290909 120.109091 
L 185.563636 120.109091 
L 185.563636 152.836364 
" clip-path="url(#p28a657f9f1)" style="fill: none; stroke: #000000; stroke-width: 1.5; stroke-linecap: square"/>
   </g>
   <g id="line2d_102">
    <g clip-path="url(#p28a657f9f1)">
     <use xlink:href="#m24ca0d2edf" x="201.927273" y="136.472727" style="fill: #5c5c5c; stroke: #5c5c5c"/>
    </g>
   </g>
   <g id="line2d_103">
    <path d="M 185.563636 120.109091 
L 218.290909 120.109091 
L 218.290909 87.381818 
L 185.563636 87.381818 
L 185.563636 120.109091 
" clip-path="url(#p28a657f9f1)" style="fill: none; stroke: #000000; stroke-width: 1.5; stroke-linecap: square"/>
   </g>
   <g id="line2d_104">
    <g clip-path="url(#p28a657f9f1)">
     <use xlink:href="#m24ca0d2edf" x="201.927273" y="103.745455" style="fill: #5c5c5c; stroke: #5c5c5c"/>
    </g>
   </g>
   <g id="line2d_105">
    <path d="M 185.563636 87.381818 
L 218.290909 87.381818 
L 218.290909 54.654545 
L 185.563636 54.654545 
L 185.563636 87.381818 
" clip-path="url(#p28a657f9f1)" style="fill: none; stroke: #000000; stroke-width: 1.5; stroke-linecap: square"/>
   </g>
   <g id="line2d_106">
    <g clip-path="url(#p28a657f9f1)">
     <use xlink:href="#m24ca0d2edf" x="201.927273" y="71.018182" style="fill: #5c5c5c; stroke: #5c5c5c"/>
    </g>
   </g>
   <g id="line2d_107">
    <path d="M 185.563636 54.654545 
L 218.290909 54.654545 
L 218.290909 21.927273 
L 185.563636 21.927273 
L 185.563636 54.654545 
" clip-path="url(#p28a657f9f1)" style="fill: none; stroke: #000000; stroke-width: 1.5; stroke-linecap: square"/>
   </g>
   <g id="line2d_108">
    <g clip-path="url(#p28a657f9f1)">
     <use xlink:href="#m24ca0d2edf" x="201.927273" y="38.290909" style="fill: #5c5c5c; stroke: #5c5c5c"/>
    </g>
   </g>
   <g id="line2d_109">
    <path d="M 218.290909 316.472727 
L 251.018182 316.472727 
L 251.018182 283.745455 
L 218.290909 283.745455 
L 218.290909 316.472727 
" clip-path="url(#p28a657f9f1)" style="fill: none; stroke: #000000; stroke-width: 1.5; stroke-linecap: square"/>
   </g>
   <g id="line2d_110">
    <g clip-path="url(#p28a657f9f1)">
     <use xlink:href="#m24ca0d2edf" x="234.654545" y="300.109091" style="fill: #5c5c5c; stroke: #5c5c5c"/>
    </g>
   </g>
   <g id="line2d_111">
    <path d="M 218.290909 283.745455 
L 251.018182 283.745455 
L 251.018182 251.018182 
L 218.290909 251.018182 
L 218.290909 283.745455 
" clip-path="url(#p28a657f9f1)" style="fill: none; stroke: #000000; stroke-width: 1.5; stroke-linecap: square"/>
   </g>
   <g id="line2d_112">
    <g clip-path="url(#p28a657f9f1)">
     <use xlink:href="#m24ca0d2edf" x="234.654545" y="267.381818" style="fill: #5c5c5c; stroke: #5c5c5c"/>
    </g>
   </g>
   <g id="line2d_113">
    <path d="M 218.290909 251.018182 
L 251.018182 251.018182 
L 251.018182 218.290909 
L 218.290909 218.290909 
L 218.290909 251.018182 
" clip-path="url(#p28a657f9f1)" style="fill: none; stroke: #000000; stroke-width: 1.5; stroke-linecap: square"/>
   </g>
   <g id="line2d_114">
    <g clip-path="url(#p28a657f9f1)">
     <use xlink:href="#m24ca0d2edf" x="234.654545" y="234.654545" style="fill: #5c5c5c; stroke: #5c5c5c"/>
    </g>
   </g>
   <g id="line2d_115">
    <path d="M 218.290909 218.290909 
L 251.018182 218.290909 
L 251.018182 185.563636 
L 218.290909 185.563636 
L 218.290909 218.290909 
" clip-path="url(#p28a657f9f1)" style="fill: none; stroke: #000000; stroke-width: 1.5; stroke-linecap: square"/>
   </g>
   <g id="line2d_116">
    <g clip-path="url(#p28a657f9f1)">
     <use xlink:href="#m24ca0d2edf" x="234.654545" y="201.927273" style="fill: #5c5c5c; stroke: #5c5c5c"/>
    </g>
   </g>
   <g id="line2d_117">
    <path d="M 218.290909 185.563636 
L 251.018182 185.563636 
L 251.018182 152.836364 
L 218.290909 152.836364 
L 218.290909 185.563636 
" clip-path="url(#p28a657f9f1)" style="fill: none; stroke: #000000; stroke-width: 1.5; stroke-linecap: square"/>
   </g>
   <g id="line2d_118">
    <g clip-path="url(#p28a657f9f1)">
     <use xlink:href="#m24ca0d2edf" x="234.654545" y="169.2" style="fill: #5c5c5c; stroke: #5c5c5c"/>
    </g>
   </g>
   <g id="line2d_119">
    <path d="M 218.290909 152.836364 
L 251.018182 152.836364 
L 251.018182 120.109091 
L 218.290909 120.109091 
L 218.290909 152.836364 
" clip-path="url(#p28a657f9f1)" style="fill: none; stroke: #000000; stroke-width: 1.5; stroke-linecap: square"/>
   </g>
   <g id="line2d_120">
    <g clip-path="url(#p28a657f9f1)">
     <use xlink:href="#m24ca0d2edf" x="234.654545" y="136.472727" style="fill: #5c5c5c; stroke: #5c5c5c"/>
    </g>
   </g>
   <g id="line2d_121">
    <path d="M 218.290909 120.109091 
L 251.018182 120.109091 
L 251.018182 87.381818 
L 218.290909 87.381818 
L 218.290909 120.109091 
" clip-path="url(#p28a657f9f1)" style="fill: none; stroke: #000000; stroke-width: 1.5; stroke-linecap: square"/>
   </g>
   <g id="line2d_122">
    <g clip-path="url(#p28a657f9f1)">
     <use xlink:href="#m24ca0d2edf" x="234.654545" y="103.745455" style="fill: #5c5c5c; stroke: #5c5c5c"/>
    </g>
   </g>
   <g id="line2d_123">
    <path d="M 218.290909 87.381818 
L 251.018182 87.381818 
L 251.018182 54.654545 
L 218.290909 54.654545 
L 218.290909 87.381818 
" clip-path="url(#p28a657f9f1)" style="fill: none; stroke: #000000; stroke-width: 1.5; stroke-linecap: square"/>
   </g>
   <g id="line2d_124">
    <g clip-path="url(#p28a657f9f1)">
     <use xlink:href="#m24ca0d2edf" x="234.654545" y="71.018182" style="fill: #5c5c5c; stroke: #5c5c5c"/>
    </g>
   </g>
   <g id="line2d_125">
    <path d="M 218.290909 54.654545 
L 251.018182 54.654545 
L 251.018182 21.927273 
L 218.290909 21.927273 
L 218.290909 54.654545 
" clip-path="url(#p28a657f9f1)" style="fill: none; stroke: #000000; stroke-width: 1.5; stroke-linecap: square"/>
   </g>
   <g id="line2d_126">
    <g clip-path="url(#p28a657f9f1)">
     <use xlink:href="#m24ca0d2edf" x="234.654545" y="38.290909" style="fill: #5c5c5c; stroke: #5c5c5c"/>
    </g>
   </g>
   <g id="line2d_127">
    <path d="M 251.018182 316.472727 
L 283.745455 316.472727 
L 283.745455 283.745455 
L 251.018182 283.745455 
L 251.018182 316.472727 
" clip-path="url(#p28a657f9f1)" style="fill: none; stroke: #000000; stroke-width: 1.5; stroke-linecap: square"/>
   </g>
   <g id="line2d_128">
    <g clip-path="url(#p28a657f9f1)">
     <use xlink:href="#m24ca0d2edf" x="267.381818" y="300.109091" style="fill: #5c5c5c; stroke: #5c5c5c"/>
    </g>
   </g>
   <g id="line2d_129">
    <path d="M 251.018182 283.745455 
L 283.745455 283.745455 
L 283.745455 251.018182 
L 251.018182 251.018182 
L 251.018182 283.745455 
" clip-path="url(#p28a657f9f1)" style="fill: none; stroke: #000000; stroke-width: 1.5; stroke-linecap: square"/>
   </g>
   <g id="line2d_130">
    <g clip-path="url(#p28a657f9f1)">
     <use xlink:href="#m24ca0d2edf" x="267.381818" y="267.381818" style="fill: #5c5c5c; stroke: #5c5c5c"/>
    </g>
   </g>
   <g id="line2d_131">
    <path d="M 251.018182 251.018182 
L 283.745455 251.018182 
L 283.745455 218.290909 
L 251.018182 218.290909 
L 251.018182 251.018182 
" clip-path="url(#p28a657f9f1)" style="fill: none; stroke: #000000; stroke-width: 1.5; stroke-linecap: square"/>
   </g>
   <g id="line2d_132">
    <g clip-path="url(#p28a657f9f1)">
     <use xlink:href="#m24ca0d2edf" x="267.381818" y="234.654545" style="fill: #5c5c5c; stroke: #5c5c5c"/>
    </g>
   </g>
   <g id="line2d_133">
    <path d="M 251.018182 218.290909 
L 283.745455 218.290909 
L 283.745455 185.563636 
L 251.018182 185.563636 
L 251.018182 218.290909 
" clip-path="url(#p28a657f9f1)" style="fill: none; stroke: #000000; stroke-width: 1.5; stroke-linecap: square"/>
   </g>
   <g id="line2d_134">
    <g clip-path="url(#p28a657f9f1)">
     <use xlink:href="#m24ca0d2edf" x="267.381818" y="201.927273" style="fill: #5c5c5c; stroke: #5c5c5c"/>
    </g>
   </g>
   <g id="line2d_135">
    <path d="M 251.018182 185.563636 
L 283.745455 185.563636 
L 283.745455 152.836364 
L 251.018182 152.836364 
L 251.018182 185.563636 
" clip-path="url(#p28a657f9f1)" style="fill: none; stroke: #000000; stroke-width: 1.5; stroke-linecap: square"/>
   </g>
   <g id="line2d_136">
    <g clip-path="url(#p28a657f9f1)">
     <use xlink:href="#m24ca0d2edf" x="267.381818" y="169.2" style="fill: #5c5c5c; stroke: #5c5c5c"/>
    </g>
   </g>
   <g id="line2d_137">
    <path d="M 251.018182 152.836364 
L 283.745455 152.836364 
L 283.745455 120.109091 
L 251.018182 120.109091 
L 251.018182 152.836364 
" clip-path="url(#p28a657f9f1)" style="fill: none; stroke: #000000; stroke-width: 1.5; stroke-linecap: square"/>
   </g>
   <g id="line2d_138">
    <g clip-path="url(#p28a657f9f1)">
     <use xlink:href="#m24ca0d2edf" x="267.381818" y="136.472727" style="fill: #5c5c5c; stroke: #5c5c5c"/>
    </g>
   </g>
   <g id="line2d_139">
    <path d="M 251.018182 120.109091 
L 283.745455 120.109091 
L 283.745455 87.381818 
L 251.018182 87.381818 
L 251.018182 120.109091 
" clip-path="url(#p28a657f9f1)" style="fill: none; stroke: #000000; stroke-width: 1.5; stroke-linecap: square"/>
   </g>
   <g id="line2d_140">
    <g clip-path="url(#p28a657f9f1)">
     <use xlink:href="#m24ca0d2edf" x="267.381818" y="103.745455" style="fill: #5c5c5c; stroke: #5c5c5c"/>
    </g>
   </g>
   <g id="line2d_141">
    <path d="M 251.018182 87.381818 
L 283.745455 87.381818 
L 283.745455 54.654545 
L 251.018182 54.654545 
L 251.018182 87.381818 
" clip-path="url(#p28a657f9f1)" style="fill: none; stroke: #000000; stroke-width: 1.5; stroke-linecap: square"/>
   </g>
   <g id="line2d_142">
    <g clip-path="url(#p28a657f9f1)">
     <use xlink:href="#m24ca0d2edf" x="267.381818" y="71.018182" style="fill: #5c5c5c; stroke: #5c5c5c"/>
    </g>
   </g>
   <g id="line2d_143">
    <path d="M 251.018182 54.654545 
L 283.745455 54.654545 
L 283.745455 21.927273 
L 251.018182 21.927273 
L 251.018182 54.654545 
" clip-path="url(#p28a657f9f1)" style="fill: none; stroke: #000000; stroke-width: 1.5; stroke-linecap: square"/>
   </g>
   <g id="line2d_144">
    <g clip-path="url(#p28a657f9f1)">
     <use xlink:href="#m24ca0d2edf" x="267.381818" y="38.290909" style="fill: #5c5c5c; stroke: #5c5c5c"/>
    </g>
   </g>
   <g id="line2d_145">
    <path d="M 283.745455 316.472727 
L 316.472727 316.472727 
L 316.472727 283.745455 
L 283.745455 283.745455 
L 283.745455 316.472727 
" clip-path="url(#p28a657f9f1)" style="fill: none; stroke: #000000; stroke-width: 1.5; stroke-linecap: square"/>
   </g>
   <g id="line2d_146">
    <g clip-path="url(#p28a657f9f1)">
     <use xlink:href="#m24ca0d2edf" x="300.109091" y="300.109091" style="fill: #5c5c5c; stroke: #5c5c5c"/>
    </g>
   </g>
   <g id="line2d_147">
    <path d="M 283.745455 283.745455 
L 316.472727 283.745455 
L 316.472727 251.018182 
L 283.745455 251.018182 
L 283.745455 283.745455 
" clip-path="url(#p28a657f9f1)" style="fill: none; stroke: #000000; stroke-width: 1.5; stroke-linecap: square"/>
   </g>
   <g id="line2d_148">
    <g clip-path="url(#p28a657f9f1)">
     <use xlink:href="#m24ca0d2edf" x="300.109091" y="267.381818" style="fill: #5c5c5c; stroke: #5c5c5c"/>
    </g>
   </g>
   <g id="line2d_149">
    <path d="M 283.745455 251.018182 
L 316.472727 251.018182 
L 316.472727 218.290909 
L 283.745455 218.290909 
L 283.745455 251.018182 
" clip-path="url(#p28a657f9f1)" style="fill: none; stroke: #000000; stroke-width: 1.5; stroke-linecap: square"/>
   </g>
   <g id="line2d_150">
    <g clip-path="url(#p28a657f9f1)">
     <use xlink:href="#m24ca0d2edf" x="300.109091" y="234.654545" style="fill: #5c5c5c; stroke: #5c5c5c"/>
    </g>
   </g>
   <g id="line2d_151">
    <path d="M 283.745455 218.290909 
L 316.472727 218.290909 
L 316.472727 185.563636 
L 283.745455 185.563636 
L 283.745455 218.290909 
" clip-path="url(#p28a657f9f1)" style="fill: none; stroke: #000000; stroke-width: 1.5; stroke-linecap: square"/>
   </g>
   <g id="line2d_152">
    <g clip-path="url(#p28a657f9f1)">
     <use xlink:href="#m24ca0d2edf" x="300.109091" y="201.927273" style="fill: #5c5c5c; stroke: #5c5c5c"/>
    </g>
   </g>
   <g id="line2d_153">
    <path d="M 283.745455 185.563636 
L 316.472727 185.563636 
L 316.472727 152.836364 
L 283.745455 152.836364 
L 283.745455 185.563636 
" clip-path="url(#p28a657f9f1)" style="fill: none; stroke: #000000; stroke-width: 1.5; stroke-linecap: square"/>
   </g>
   <g id="line2d_154">
    <g clip-path="url(#p28a657f9f1)">
     <use xlink:href="#m24ca0d2edf" x="300.109091" y="169.2" style="fill: #5c5c5c; stroke: #5c5c5c"/>
    </g>
   </g>
   <g id="line2d_155">
    <path d="M 283.745455 152.836364 
L 316.472727 152.836364 
L 316.472727 120.109091 
L 283.745455 120.109091 
L 283.745455 152.836364 
" clip-path="url(#p28a657f9f1)" style="fill: none; stroke: #000000; stroke-width: 1.5; stroke-linecap: square"/>
   </g>
   <g id="line2d_156">
    <g clip-path="url(#p28a657f9f1)">
     <use xlink:href="#m24ca0d2edf" x="300.109091" y="136.472727" style="fill: #5c5c5c; stroke: #5c5c5c"/>
    </g>
   </g>
   <g id="line2d_157">
    <path d="M 283.745455 120.109091 
L 316.472727 120.109091 
L 316.472727 87.381818 
L 283.745455 87.381818 
L 283.745455 120.109091 
" clip-path="url(#p28a657f9f1)" style="fill: none; stroke: #000000; stroke-width: 1.5; stroke-linecap: square"/>
   </g>
   <g id="line2d_158">
    <g clip-path="url(#p28a657f9f1)">
     <use xlink:href="#m24ca0d2edf" x="300.109091" y="103.745455" style="fill: #5c5c5c; stroke: #5c5c5c"/>
    </g>
   </g>
   <g id="line2d_159">
    <path d="M 283.745455 87.381818 
L 316.472727 87.381818 
L 316.472727 54.654545 
L 283.745455 54.654545 
L 283.745455 87.381818 
" clip-path="url(#p28a657f9f1)" style="fill: none; stroke: #000000; stroke-width: 1.5; stroke-linecap: square"/>
   </g>
   <g id="line2d_160">
    <g clip-path="url(#p28a657f9f1)">
     <use xlink:href="#m24ca0d2edf" x="300.109091" y="71.018182" style="fill: #5c5c5c; stroke: #5c5c5c"/>
    </g>
   </g>
   <g id="line2d_161">
    <path d="M 283.745455 54.654545 
L 316.472727 54.654545 
L 316.472727 21.927273 
L 283.745455 21.927273 
L 283.745455 54.654545 
" clip-path="url(#p28a657f9f1)" style="fill: none; stroke: #000000; stroke-width: 1.5; stroke-linecap: square"/>
   </g>
   <g id="line2d_162">
    <g clip-path="url(#p28a657f9f1)">
     <use xlink:href="#m24ca0d2edf" x="300.109091" y="38.290909" style="fill: #5c5c5c; stroke: #5c5c5c"/>
    </g>
   </g>
   <g id="patch_29">
    <path d="M 169.995009 166.486697 
Q 206.934548 146.306534 243.874088 126.126372 
L 242.435811 123.493624 
Q 248.02212 123.290545 253.608428 123.087465 
Q 250.419247 127.678458 247.230066 132.26945 
L 245.79179 129.636702 
Q 208.85225 149.816865 171.912711 169.997027 
L 169.995009 166.486697 
z
" style="fill: #dc2c41; stroke: #8f1625; stroke-linecap: round"/>
   </g>
   <g id="text_1">
    <!-- Lr -->
    <g style="fill: #dc2c41" transform="translate(192.281326 131.183314)scale(0.2 -0.2)">
     <defs>
      <path id="DejaVuSans-4c" d="M 628 4666 
L 1259 4666 
L 1259 531 
L 3531 531 
L 3531 0 
L 628 0 
L 628 4666 
z
" transform="scale(0.015625)"/>
      <path id="DejaVuSans-72" d="M 2631 2963 
Q 2534 3019 2420 3045 
Q 2306 3072 2169 3072 
Q 1681 3072 1420 2755 
Q 1159 2438 1159 1844 
L 1159 0 
L 581 0 
L 581 3500 
L 1159 3500 
L 1159 2956 
Q 1341 3275 1631 3429 
Q 1922 3584 2338 3584 
Q 2397 3584 2469 3576 
Q 2541 3569 2628 3553 
L 2631 2963 
z
" transform="scale(0.015625)"/>
     </defs>
     <use xlink:href="#DejaVuSans-4c"/>
     <use xlink:href="#DejaVuSans-72" x="55.712891"/>
    </g>
   </g>
  </g>
 </g>
 <defs>
  <clipPath id="p28a657f9f1">
   <rect x="7.2" y="7.2" width="324" height="324"/>
  </clipPath>
 </defs>
</svg>
