<svg width="1881" height="1310" xmlns="http://www.w3.org/2000/svg" xmlns:xlink="http://www.w3.org/1999/xlink" xml:space="preserve" overflow="hidden"><defs><clipPath id="clip0"><rect x="409" y="167" width="1881" height="1310"/></clipPath><clipPath id="clip1"><rect x="410" y="167" width="1877" height="1307"/></clipPath><clipPath id="clip2"><rect x="410" y="167" width="1877" height="1307"/></clipPath><clipPath id="clip3"><rect x="410" y="167" width="1877" height="1307"/></clipPath><clipPath id="clip4"><rect x="410" y="167" width="1877" height="1307"/></clipPath><clipPath id="clip5"><rect x="628" y="220" width="1575" height="1084"/></clipPath><clipPath id="clip6"><rect x="628" y="220" width="1575" height="1084"/></clipPath><clipPath id="clip7"><rect x="410" y="167" width="1877" height="1307"/></clipPath><clipPath id="clip8"><rect x="628" y="220" width="1575" height="1084"/></clipPath><clipPath id="clip9"><rect x="410" y="167" width="1877" height="1307"/></clipPath><clipPath id="clip10"><rect x="410" y="167" width="1877" height="1307"/></clipPath><clipPath id="clip11"><rect x="410" y="167" width="1877" height="1307"/></clipPath><clipPath id="clip12"><rect x="410" y="167" width="1877" height="1307"/></clipPath><clipPath id="clip13"><rect x="410" y="167" width="1877" height="1307"/></clipPath><clipPath id="clip14"><rect x="410" y="167" width="1877" height="1307"/></clipPath><clipPath id="clip15"><rect x="410" y="167" width="1877" height="1307"/></clipPath><clipPath id="clip16"><rect x="410" y="167" width="1877" height="1307"/></clipPath><clipPath id="clip17"><rect x="410" y="167" width="1877" height="1307"/></clipPath><clipPath id="clip18"><rect x="410" y="167" width="1877" height="1307"/></clipPath><clipPath id="clip19"><rect x="410" y="167" width="1877" height="1307"/></clipPath><clipPath id="clip20"><rect x="410" y="167" width="1877" height="1307"/></clipPath><clipPath id="clip21"><rect x="410" y="167" width="1877" height="1307"/></clipPath><clipPath id="clip22"><rect x="410" y="167" width="1877" height="1307"/></clipPath><clipPath id="clip23"><rect x="410" y="167" width="1877" height="1307"/></clipPath><clipPath id="clip24"><rect x="410" y="167" width="1877" height="1307"/></clipPath><clipPath id="clip25"><rect x="410" y="167" width="1877" height="1307"/></clipPath><clipPath id="clip26"><rect x="410" y="167" width="1877" height="1307"/></clipPath><clipPath id="clip27"><rect x="410" y="167" width="1877" height="1307"/></clipPath><clipPath id="clip28"><rect x="410" y="167" width="1877" height="1307"/></clipPath><clipPath id="clip29"><rect x="410" y="167" width="1877" height="1307"/></clipPath><clipPath id="clip30"><rect x="410" y="167" width="1877" height="1307"/></clipPath><clipPath id="clip31"><rect x="410" y="167" width="1877" height="1307"/></clipPath><clipPath id="clip32"><rect x="410" y="167" width="1877" height="1307"/></clipPath><clipPath id="clip33"><rect x="410" y="167" width="1877" height="1307"/></clipPath><clipPath id="clip34"><rect x="410" y="167" width="1877" height="1307"/></clipPath><clipPath id="clip35"><rect x="410" y="167" width="1877" height="1307"/></clipPath><clipPath id="clip36"><rect x="410" y="167" width="1877" height="1307"/></clipPath><clipPath id="clip37"><rect x="410" y="167" width="1877" height="1307"/></clipPath><clipPath id="clip38"><rect x="410" y="167" width="1877" height="1307"/></clipPath><clipPath id="clip39"><rect x="410" y="167" width="1877" height="1307"/></clipPath><clipPath id="clip40"><rect x="410" y="167" width="1877" height="1307"/></clipPath><clipPath id="clip41"><rect x="410" y="167" width="1877" height="1307"/></clipPath><clipPath id="clip42"><rect x="410" y="167" width="1877" height="1307"/></clipPath><clipPath id="clip43"><rect x="410" y="167" width="1877" height="1307"/></clipPath><clipPath id="clip44"><rect x="410" y="167" width="1877" height="1307"/></clipPath><clipPath id="clip45"><rect x="410" y="167" width="1877" height="1307"/></clipPath><clipPath id="clip46"><rect x="410" y="167" width="1877" height="1307"/></clipPath><clipPath id="clip47"><rect x="410" y="167" width="1877" height="1307"/></clipPath><clipPath id="clip48"><rect x="410" y="167" width="1877" height="1307"/></clipPath><clipPath id="clip49"><rect x="410" y="167" width="1877" height="1307"/></clipPath><clipPath id="clip50"><rect x="410" y="167" width="1877" height="1307"/></clipPath><clipPath id="clip51"><rect x="410" y="167" width="1877" height="1307"/></clipPath><clipPath id="clip52"><rect x="410" y="167" width="1877" height="1307"/></clipPath><clipPath id="clip53"><rect x="1032" y="1180" width="1250" height="78"/></clipPath><clipPath id="clip54"><rect x="410" y="167" width="1877" height="1307"/></clipPath><clipPath id="clip55"><rect x="1032" y="1180" width="1250" height="78"/></clipPath><clipPath id="clip56"><rect x="687" y="978" width="447" height="175"/></clipPath></defs><g clip-path="url(#clip0)" transform="translate(-409 -167)"><rect x="410" y="168" width="1878" height="1307" fill="#FFFFFF"/><g clip-path="url(#clip1)"><path d="M628.5 1120.54 2200.5 1120.54M628.5 940.531 2200.5 940.531M628.5 760.525 2200.5 760.525M628.5 580.519 2200.5 580.519M628.5 400.513 2200.5 400.513M628.5 220.5 2200.5 220.5" stroke="#D9D9D9" stroke-width="3.4375" stroke-linejoin="round" stroke-miterlimit="10" fill="none"/></g><g clip-path="url(#clip2)"><path d="M890.529 220.5 890.529 1300.5M1152.54 220.5 1152.54 1300.5M1414.55 220.5 1414.55 1300.5M1676.56 220.5 1676.56 1300.5M1938.56 220.5 1938.56 1300.5M2200.5 220.5 2200.5 1300.5" stroke="#D9D9D9" stroke-width="3.4375" stroke-linejoin="round" stroke-miterlimit="10" fill="none"/></g><g clip-path="url(#clip3)"><path d="M0 0 0.000360892 1080" stroke="#BFBFBF" stroke-width="3.4375" stroke-linejoin="round" stroke-miterlimit="10" fill="none" fill-rule="evenodd" transform="matrix(1 0 0 -1 628.5 1300.5)"/></g><g clip-path="url(#clip4)"><path d="M628.5 1300.5 2200.5 1300.5" stroke="#BFBFBF" stroke-width="3.4375" stroke-linejoin="round" stroke-miterlimit="10" fill="none" fill-rule="evenodd"/></g><g clip-path="url(#clip5)"><path d="M670.5 422.5C1099.17 422.5 1527.83 422.5 1956.5 422.5" stroke="#000000" stroke-width="6.875" stroke-linecap="round" stroke-linejoin="round" stroke-miterlimit="10" stroke-dasharray="20.625 27.5" fill="none"/></g><g clip-path="url(#clip6)"><path d="M1120.5 702.5C1163.37 717.023 1189.98 724.945 1249.12 746.069 1302.95 765.301 1367.96 774.552 1475.3 829.245 1593.2 889.317 1796.1 1014.08 1956.5 1106.5" stroke="#767171" stroke-width="6.875" stroke-linecap="round" stroke-linejoin="round" stroke-miterlimit="10" stroke-dasharray="20.625 27.5" fill="none"/></g><g clip-path="url(#clip7)"><path d="M1121.13 690.607 1132.13 712.607 1110.13 712.607Z" fill="#767171"/><path d="M1249.13 734.607 1260.13 756.607 1238.13 756.607Z" fill="#767171"/><path d="M1475.13 817.607 1486.13 839.607 1464.13 839.607Z" fill="#767171"/><path d="M1956.13 1095.61 1967.13 1117.61 1945.13 1117.61Z" fill="#767171"/></g><g clip-path="url(#clip8)"><path d="M670.5 483.5C684.584 492.602 691.626 500.697 712.752 510.807 733.877 520.917 756.927 525.174 797.255 544.158 837.583 563.141 913.968 604.297 954.718 624.707 995.467 645.118 1002.26 649.702 1041.75 666.622 1080.78 683.344 1114.24 703.531 1191.64 726.223 1269.95 749.181 1384.14 784.827 1511.62 804.374 1639.1 823.919 1808.21 830.458 1956.5 843.5" stroke="#ED7D31" stroke-width="6.875" stroke-linecap="round" stroke-linejoin="round" stroke-miterlimit="10" fill="none"/></g><g clip-path="url(#clip9)"><path d="M681.628 483.107C681.628 489.182 676.704 494.106 670.629 494.106 664.554 494.106 659.629 489.182 659.629 483.107 659.629 477.032 664.554 472.107 670.629 472.107 676.704 472.107 681.628 477.032 681.628 483.107Z" stroke="#ED7D31" stroke-width="3.4375" stroke-linejoin="round" stroke-miterlimit="10" fill="#ED7D31"/><path d="M724.628 510.107C724.628 516.182 719.704 521.106 713.629 521.106 707.554 521.106 702.629 516.182 702.629 510.107 702.629 504.032 707.554 499.107 713.629 499.107 719.704 499.107 724.628 504.032 724.628 510.107Z" stroke="#ED7D31" stroke-width="3.4375" stroke-linejoin="round" stroke-miterlimit="10" fill="#ED7D31"/><path d="M808.628 543.107C808.628 549.182 803.703 554.106 797.628 554.106 791.554 554.106 786.629 549.182 786.629 543.107 786.629 537.032 791.554 532.107 797.628 532.107 803.703 532.107 808.628 537.032 808.628 543.107Z" stroke="#ED7D31" stroke-width="3.4375" stroke-linejoin="round" stroke-miterlimit="10" fill="#ED7D31"/><path d="M965.628 624.107C965.628 630.182 960.703 635.106 954.629 635.106 948.554 635.106 943.629 630.182 943.629 624.107 943.629 618.032 948.554 613.107 954.629 613.107 960.703 613.107 965.628 618.032 965.628 624.107Z" stroke="#ED7D31" stroke-width="3.4375" stroke-linejoin="round" stroke-miterlimit="10" fill="#ED7D31"/><path d="M1052.63 666.107C1052.63 672.182 1047.7 677.106 1041.63 677.106 1035.55 677.106 1030.63 672.182 1030.63 666.107 1030.63 660.032 1035.55 655.107 1041.63 655.107 1047.7 655.107 1052.63 660.032 1052.63 666.107Z" stroke="#ED7D31" stroke-width="3.4375" stroke-linejoin="round" stroke-miterlimit="10" fill="#ED7D31"/><path d="M1202.63 725.107C1202.63 731.182 1197.7 736.106 1191.63 736.106 1185.55 736.106 1180.63 731.182 1180.63 725.107 1180.63 719.032 1185.55 714.107 1191.63 714.107 1197.7 714.107 1202.63 719.032 1202.63 725.107Z" stroke="#ED7D31" stroke-width="3.4375" stroke-linejoin="round" stroke-miterlimit="10" fill="#ED7D31"/><path d="M1522.63 803.107C1522.63 809.182 1517.7 814.106 1511.63 814.106 1505.55 814.106 1500.63 809.182 1500.63 803.107 1500.63 797.032 1505.55 792.107 1511.63 792.107 1517.7 792.107 1522.63 797.032 1522.63 803.107Z" stroke="#ED7D31" stroke-width="3.4375" stroke-linejoin="round" stroke-miterlimit="10" fill="#ED7D31"/><path d="M1967.63 843.107C1967.63 849.182 1962.7 854.106 1956.63 854.106 1950.55 854.106 1945.63 849.182 1945.63 843.107 1945.63 837.032 1950.55 832.107 1956.63 832.107 1962.7 832.107 1967.63 837.032 1967.63 843.107Z" stroke="#ED7D31" stroke-width="3.4375" stroke-linejoin="round" stroke-miterlimit="10" fill="#ED7D31"/></g><g clip-path="url(#clip10)"><rect x="604.5" y="538.5" width="129" height="62.9999" stroke="#BFBFBF" stroke-width="3.4375" stroke-linejoin="round" stroke-miterlimit="10" fill="#FFFFFF"/></g><g clip-path="url(#clip11)"><text fill="#595959" font-family="Calibri,Calibri_MSFontService,sans-serif" font-weight="400" font-size="41" transform="matrix(1 0 0 1 617.651 584)">3.80%</text></g><g clip-path="url(#clip12)"><rect x="747.5" y="445.5" width="129" height="62.9999" stroke="#BFBFBF" stroke-width="3.4375" stroke-linejoin="round" stroke-miterlimit="10" fill="#FFFFFF"/></g><g clip-path="url(#clip13)"><text fill="#595959" font-family="Calibri,Calibri_MSFontService,sans-serif" font-weight="400" font-size="41" transform="matrix(1 0 0 1 760.382 491)">5.50%</text></g><g clip-path="url(#clip14)"><rect x="726.5" y="593.5" width="129" height="62.9999" stroke="#BFBFBF" stroke-width="3.4375" stroke-linejoin="round" stroke-miterlimit="10" fill="#FFFFFF"/></g><g clip-path="url(#clip15)"><text fill="#595959" font-family="Calibri,Calibri_MSFontService,sans-serif" font-weight="400" font-size="41" transform="matrix(1 0 0 1 739.693 639)">7.59%</text></g><g clip-path="url(#clip16)"><rect x="833.5" y="669.5" width="149" height="63.9999" stroke="#BFBFBF" stroke-width="3.4375" stroke-linejoin="round" stroke-miterlimit="10" fill="#FFFFFF"/></g><g clip-path="url(#clip17)"><text fill="#595959" font-family="Calibri,Calibri_MSFontService,sans-serif" font-weight="400" font-size="41" transform="matrix(1 0 0 1 846.217 715)">12.63%</text></g><g clip-path="url(#clip18)"><rect x="979.5" y="748.5" width="150" height="64.0003" stroke="#BFBFBF" stroke-width="3.4375" stroke-linejoin="round" stroke-miterlimit="10" fill="#FFFFFF"/></g><g clip-path="url(#clip19)"><text fill="#595959" font-family="Calibri,Calibri_MSFontService,sans-serif" font-weight="400" font-size="41" transform="matrix(1 0 0 1 993.148 794)">15.25%</text></g><g clip-path="url(#clip20)"><rect x="1202.5" y="625.5" width="150" height="63.9999" stroke="#BFBFBF" stroke-width="3.4375" stroke-linejoin="round" stroke-miterlimit="10" fill="#FFFFFF"/></g><g clip-path="url(#clip21)"><text fill="#595959" font-family="Calibri,Calibri_MSFontService,sans-serif" font-weight="400" font-size="41" transform="matrix(1 0 0 1 1216.13 672)">18.98%</text></g><g clip-path="url(#clip22)"><rect x="1408.5" y="726.5" width="150" height="63.0002" stroke="#BFBFBF" stroke-width="3.4375" stroke-linejoin="round" stroke-miterlimit="10" fill="#FFFFFF"/></g><g clip-path="url(#clip23)"><text fill="#595959" font-family="Calibri,Calibri_MSFontService,sans-serif" font-weight="400" font-size="41" transform="matrix(1 0 0 1 1421.55 772)">23.87%</text></g><g clip-path="url(#clip24)"><rect x="1797.5" y="692.5" width="150" height="62.9999" stroke="#BFBFBF" stroke-width="3.4375" stroke-linejoin="round" stroke-miterlimit="10" fill="#FFFFFF"/></g><g clip-path="url(#clip25)"><text fill="#595959" font-family="Calibri,Calibri_MSFontService,sans-serif" font-weight="400" font-size="41" transform="matrix(1 0 0 1 1811.14 738)">26.32%</text></g><g clip-path="url(#clip26)"><text fill="#595959" font-family="Calibri,Calibri_MSFontService,sans-serif" font-weight="400" font-size="41" transform="matrix(1 0 0 1 538.214 1312)">0.8</text></g><g clip-path="url(#clip27)"><text fill="#595959" font-family="Calibri,Calibri_MSFontService,sans-serif" font-weight="400" font-size="41" transform="matrix(1 0 0 1 569.518 1132)">1</text></g><g clip-path="url(#clip28)"><text fill="#595959" font-family="Calibri,Calibri_MSFontService,sans-serif" font-weight="400" font-size="41" transform="matrix(1 0 0 1 538.214 952)">1.2</text></g><g clip-path="url(#clip29)"><text fill="#595959" font-family="Calibri,Calibri_MSFontService,sans-serif" font-weight="400" font-size="41" transform="matrix(1 0 0 1 538.214 772)">1.4</text></g><g clip-path="url(#clip30)"><text fill="#595959" font-family="Calibri,Calibri_MSFontService,sans-serif" font-weight="400" font-size="41" transform="matrix(1 0 0 1 538.214 592)">1.6</text></g><g clip-path="url(#clip31)"><text fill="#595959" font-family="Calibri,Calibri_MSFontService,sans-serif" font-weight="400" font-size="41" transform="matrix(1 0 0 1 538.214 412)">1.8</text></g><g clip-path="url(#clip32)"><text fill="#595959" font-family="Calibri,Calibri_MSFontService,sans-serif" font-weight="400" font-size="41" transform="matrix(1 0 0 1 569.518 232)">2</text></g><g clip-path="url(#clip33)"><text fill="#595959" font-family="Calibri,Calibri_MSFontService,sans-serif" font-weight="400" font-size="41" transform="matrix(1 0 0 1 618.235 1366)">0</text></g><g clip-path="url(#clip34)"><text fill="#595959" font-family="Calibri,Calibri_MSFontService,sans-serif" font-weight="400" font-size="41" transform="matrix(1 0 0 1 854.069 1366)">0.05</text></g><g clip-path="url(#clip35)"><text fill="#595959" font-family="Calibri,Calibri_MSFontService,sans-serif" font-weight="400" font-size="41" transform="matrix(1 0 0 1 1126.46 1366)">0.1</text></g><g clip-path="url(#clip36)"><text fill="#595959" font-family="Calibri,Calibri_MSFontService,sans-serif" font-weight="400" font-size="41" transform="matrix(1 0 0 1 1377.94 1366)">0.15</text></g><g clip-path="url(#clip37)"><text fill="#595959" font-family="Calibri,Calibri_MSFontService,sans-serif" font-weight="400" font-size="41" transform="matrix(1 0 0 1 1650.33 1366)">0.2</text></g><g clip-path="url(#clip38)"><text fill="#595959" font-family="Calibri,Calibri_MSFontService,sans-serif" font-weight="400" font-size="41" transform="matrix(1 0 0 1 1901.82 1366)">0.25</text></g><g clip-path="url(#clip39)"><text fill="#595959" font-family="Calibri,Calibri_MSFontService,sans-serif" font-weight="400" font-size="41" transform="matrix(1 0 0 1 2174.2 1366)">0.3</text></g><g clip-path="url(#clip40)"><text fill="#595959" font-family="Calibri,Calibri_MSFontService,sans-serif" font-weight="400" font-size="46" transform="matrix(6.12323e-17 -1 1 6.12323e-17 512.524 799)">Î·</text></g><g clip-path="url(#clip41)"><text fill="#595959" font-family="Calibri,Calibri_MSFontService,sans-serif" font-weight="400" font-size="46" transform="matrix(6.12323e-17 -1 1 6.12323e-17 512.524 764)">[</text></g><g clip-path="url(#clip42)"><text fill="#595959" font-family="Calibri,Calibri_MSFontService,sans-serif" font-weight="400" font-size="46" transform="matrix(6.12323e-17 -1 1 6.12323e-17 512.524 750)">-</text></g><g clip-path="url(#clip43)"><text fill="#595959" font-family="Calibri,Calibri_MSFontService,sans-serif" font-weight="400" font-size="46" transform="matrix(6.12323e-17 -1 1 6.12323e-17 512.524 736)">]</text></g><g clip-path="url(#clip44)"><text fill="#595959" font-family="Calibri,Calibri_MSFontService,sans-serif" font-weight="400" font-size="46" transform="matrix(1 0 0 1 1328.64 1435)">1/R [1/A]</text></g><g clip-path="url(#clip45)"><path d="M716.5 1221.5 831.5 1221.5" stroke="#000000" stroke-width="6.875" stroke-linecap="round" stroke-linejoin="round" stroke-miterlimit="10" stroke-dasharray="20.625 27.5" fill="none" fill-rule="evenodd"/></g><g clip-path="url(#clip46)"><text fill="#595959" font-family="Calibri,Calibri_MSFontService,sans-serif" font-weight="400" font-size="41" transform="matrix(1 0 0 1 844.399 1233)">Local</text></g><g clip-path="url(#clip47)"><path d="M993.5 1221.5 1109.5 1221.5" stroke="#767171" stroke-width="6.875" stroke-linecap="round" stroke-linejoin="round" stroke-miterlimit="10" stroke-dasharray="20.625 27.5" fill="none" fill-rule="evenodd"/></g><g clip-path="url(#clip48)"><path d="M1051 1210 1062 1232 1040 1232Z" fill="#767171"/></g><g clip-path="url(#clip49)"><text fill="#595959" font-family="Calibri,Calibri_MSFontService,sans-serif" font-weight="400" font-size="41" transform="matrix(1 0 0 1 1122.08 1233)">Ramirez (2006)</text></g><g clip-path="url(#clip50)"><path d="M1439.5 1221.5 1555.5 1221.5" stroke="#ED7D31" stroke-width="6.875" stroke-linecap="round" stroke-linejoin="round" stroke-miterlimit="10" fill="none" fill-rule="evenodd"/></g><g clip-path="url(#clip51)"><path d="M1508 1221.5C1508 1227.31 1503.07 1232.02 1497 1232.02 1490.92 1232.02 1486 1227.31 1486 1221.5 1486 1215.69 1490.92 1210.98 1497 1210.98 1503.07 1210.98 1508 1215.69 1508 1221.5Z" stroke="#ED7D31" stroke-width="3.4375" stroke-linejoin="round" stroke-miterlimit="10" fill="#ED7D31"/></g><g clip-path="url(#clip52)"><g clip-path="url(#clip53)"><text fill="#595959" font-family="Calibri,Calibri_MSFontService,sans-serif" font-weight="400" font-size="41" transform="matrix(1 0 0 1 1567.75 1233)">l=2, </text></g></g><g clip-path="url(#clip54)"><g clip-path="url(#clip55)"><text fill="#595959" font-family="Calibri,Calibri_MSFontService,sans-serif" font-weight="400" font-size="41" transform="matrix(1 0 0 1 1638.26 1233)">Î¶1=0.5</text></g></g><rect x="410.5" y="168.5" width="1878" height="1307" stroke="#D9D9D9" stroke-width="3.4375" stroke-linejoin="round" stroke-miterlimit="10" fill="none"/><rect x="688.5" y="979.5" width="445" height="173" stroke="#BCBCBC" stroke-width="3.4375" stroke-linejoin="round" stroke-miterlimit="10" fill="#FFFFFF"/><path d="M740.662 1052.04 731.36 1076.45 748.352 1076.45ZM739.807 1046.64 743.421 1046.64 753.723 1078.79 753.723 1080.36 727.039 1080.36 727.039 1078.79Z" fill-rule="evenodd"/><text fill="#000000" fill-opacity="0" font-family="Arial,Arial_MSFontService,sans-serif" font-size="33.7158" x="727.039" y="1076.14">Î”</text><path d="M773.477 1069.52 803.555 1069.52 803.555 1072.76 773.477 1072.76ZM773.477 1059.39 803.555 1059.39 803.555 1062.63 773.477 1062.63Z" fill-rule="evenodd"/><text fill="#000000" fill-opacity="0" font-family="Arial,Arial_MSFontService,sans-serif" font-size="13.3789" x="773.477" y="1071.09">=</text><g clip-path="url(#clip56)"><path d="M1031.32 1002.99 1035.72 1002.99 1035.72 1129.16 1031.32 1129.16ZM827.547 1002.99 831.941 1002.99 831.941 1129.16 827.547 1129.16Z" fill-rule="evenodd"/></g><path d="M844.969 1018.47C845.994 1018.47 846.808 1018.76 847.41 1019.35 848.012 1019.93 848.313 1020.72 848.313 1021.69 848.313 1022.7 848.118 1023.78 847.727 1024.94L847.947 1025.04C848.647 1024.08 849.343 1023.2 850.035 1022.4 850.726 1021.6 851.442 1020.92 852.183 1020.34 852.924 1019.76 853.697 1019.3 854.502 1018.97 855.308 1018.64 856.167 1018.47 857.078 1018.47 858.624 1018.47 859.812 1018.91 860.642 1019.8 861.473 1020.69 861.888 1021.95 861.888 1023.6 861.888 1024.59 861.7 1025.94 861.326 1027.65L855.784 1052.75 851.78 1052.75 857.127 1028.5C857.257 1027.89 857.375 1027.19 857.481 1026.42 857.587 1025.64 857.64 1025.01 857.64 1024.52 857.64 1023.39 857.436 1022.57 857.029 1022.07 856.622 1021.57 856.004 1021.33 855.174 1021.33 854.311 1021.33 853.31 1021.82 852.171 1022.8 851.031 1023.79 849.978 1025.04 849.009 1026.56 848.041 1028.09 847.434 1029.42 847.19 1030.58L844.676 1042.2 840.452 1042.2 844.163 1025.79C844.244 1025.42 844.322 1024.97 844.395 1024.44 844.468 1023.91 844.505 1023.44 844.505 1023.04 844.505 1022.47 844.403 1022.03 844.2 1021.73 843.996 1021.43 843.658 1021.28 843.186 1021.28 842.796 1021.28 842.34 1021.42 841.819 1021.72 841.298 1022.01 840.712 1022.52 840.061 1023.26L838.694 1021.89C840.175 1020.5 841.335 1019.59 842.173 1019.14 843.011 1018.69 843.943 1018.47 844.969 1018.47Z" fill-rule="evenodd"/><text fill="#000000" fill-opacity="0" font-family="Arial,Arial_MSFontService,sans-serif" font-size="34.2773" x="838.694" y="1048.46">ğœ‚</text><path d="M870.209 1029.06 877.833 1029.06 877.634 1030.14C877.213 1030.25 876.878 1030.34 876.632 1030.42 876.385 1030.5 876.174 1030.67 875.999 1030.92 875.825 1031.17 875.668 1031.55 875.529 1032.05 875.391 1032.55 875.213 1033.28 874.997 1034.24L871.329 1050.58 876.044 1050.58C876.707 1050.58 877.279 1050.52 877.761 1050.4 878.242 1050.29 878.688 1050.05 879.098 1049.68 879.507 1049.31 879.902 1048.79 880.281 1048.12 880.66 1047.44 881.079 1046.55 881.537 1045.43L883.524 1045.43 881.663 1052.49 865.747 1052.49 865.945 1051.39C866.319 1051.33 866.626 1051.25 866.867 1051.16 867.108 1051.07 867.321 1050.9 867.508 1050.64 867.695 1050.38 867.863 1049.99 868.014 1049.47 868.164 1048.96 868.342 1048.23 868.547 1047.31L871.51 1034.13C871.63 1033.6 871.72 1033.14 871.781 1032.73 871.841 1032.32 871.871 1031.97 871.871 1031.68 871.871 1031.15 871.733 1030.77 871.456 1030.55 871.178 1030.33 870.673 1030.21 869.938 1030.2Z" fill-rule="evenodd"/><text fill="#000000" fill-opacity="0" font-family="Arial,Arial_MSFontService,sans-serif" font-size="23.4321" x="865.747" y="1049.56">ğ¿</text><path d="M902.59 1026.28 932.668 1026.28 932.668 1029.53 902.59 1029.53Z" fill-rule="evenodd"/><text fill="#000000" fill-opacity="0" font-family="Arial,Arial_MSFontService,sans-serif" font-size="3.24707" x="902.59" y="1029.12">âˆ’</text><path d="M954.694 1018.47C955.719 1018.47 956.533 1018.76 957.135 1019.35 957.737 1019.93 958.038 1020.72 958.038 1021.69 958.038 1022.7 957.843 1023.78 957.452 1024.94L957.672 1025.04C958.372 1024.08 959.068 1023.2 959.76 1022.4 960.451 1021.6 961.167 1020.92 961.908 1020.34 962.649 1019.76 963.422 1019.3 964.227 1018.97 965.033 1018.64 965.892 1018.47 966.803 1018.47 968.349 1018.47 969.537 1018.91 970.367 1019.8 971.198 1020.69 971.613 1021.95 971.613 1023.6 971.613 1024.59 971.425 1025.94 971.051 1027.65L965.509 1052.75 961.505 1052.75 966.852 1028.5C966.982 1027.89 967.1 1027.19 967.206 1026.42 967.312 1025.64 967.365 1025.01 967.365 1024.52 967.365 1023.39 967.161 1022.57 966.754 1022.07 966.347 1021.57 965.729 1021.33 964.899 1021.33 964.036 1021.33 963.035 1021.82 961.896 1022.8 960.756 1023.79 959.703 1025.04 958.734 1026.56 957.766 1028.09 957.159 1029.42 956.915 1030.58L954.401 1042.2 950.177 1042.2 953.888 1025.79C953.969 1025.42 954.047 1024.97 954.12 1024.44 954.193 1023.91 954.23 1023.44 954.23 1023.04 954.23 1022.47 954.128 1022.03 953.925 1021.73 953.721 1021.43 953.383 1021.28 952.911 1021.28 952.521 1021.28 952.065 1021.42 951.544 1021.72 951.023 1022.01 950.438 1022.52 949.786 1023.26L948.419 1021.89C949.9 1020.5 951.06 1019.59 951.898 1019.14 952.736 1018.69 953.668 1018.47 954.694 1018.47Z" fill-rule="evenodd"/><text fill="#000000" fill-opacity="0" font-family="Arial,Arial_MSFontService,sans-serif" font-size="34.2773" x="948.419" y="1048.46">ğœ‚</text><path d="M1007.93 1029.06 1015.56 1029.06 1015.36 1030.14C1014.94 1030.25 1014.6 1030.34 1014.36 1030.42 1014.11 1030.5 1013.9 1030.67 1013.72 1030.92 1013.55 1031.17 1013.39 1031.55 1013.25 1032.05 1013.12 1032.55 1012.94 1033.28 1012.72 1034.24L1009.05 1050.58 1013.77 1050.58C1014.43 1050.58 1015 1050.52 1015.49 1050.4 1015.97 1050.29 1016.41 1050.05 1016.82 1049.68 1017.23 1049.31 1017.63 1048.79 1018.01 1048.12 1018.39 1047.44 1018.8 1046.55 1019.26 1045.43L1021.25 1045.43 1019.39 1052.49 1003.47 1052.49 1003.67 1051.39C1004.04 1051.33 1004.35 1051.25 1004.59 1051.16 1004.83 1051.07 1005.05 1050.9 1005.23 1050.64 1005.42 1050.38 1005.59 1049.99 1005.74 1049.47 1005.89 1048.96 1006.07 1048.23 1006.27 1047.31L1009.23 1034.13C1009.36 1033.6 1009.45 1033.14 1009.51 1032.73 1009.57 1032.32 1009.6 1031.97 1009.6 1031.68 1009.6 1031.15 1009.46 1030.77 1009.18 1030.55 1008.9 1030.33 1008.4 1030.21 1007.66 1030.2ZM979.898 1029.06 986.131 1029.06C986.697 1030.56 987.278 1032.08 987.874 1033.6 988.47 1035.13 989.057 1036.65 989.636 1038.16 990.214 1039.68 990.771 1041.18 991.307 1042.65 991.843 1044.13 992.333 1045.57 992.779 1046.98L993.014 1046.98C993.146 1046.21 993.315 1045.3 993.52 1044.24 993.725 1043.19 993.965 1042.1 994.242 1040.96 994.447 1040.11 994.655 1039.23 994.866 1038.33 995.077 1037.42 995.272 1036.56 995.453 1035.72 995.634 1034.89 995.781 1034.13 995.896 1033.42 996.01 1032.72 996.067 1032.14 996.067 1031.68 996.067 1031.15 995.932 1030.77 995.661 1030.55 995.39 1030.33 994.887 1030.21 994.152 1030.2L994.405 1029.06 1001.11 1029.06 1000.87 1030.14C1000.46 1030.26 1000.14 1030.37 999.897 1030.46 999.656 1030.55 999.452 1030.72 999.283 1030.98 999.114 1031.24 998.955 1031.62 998.804 1032.11 998.654 1032.6 998.476 1033.32 998.271 1034.24L994.188 1052.49 991.46 1052.49C990.822 1050.85 990.169 1049.2 989.5 1047.54 988.832 1045.88 988.175 1044.22 987.531 1042.55 986.886 1040.89 986.269 1039.24 985.679 1037.6 985.089 1035.97 984.553 1034.35 984.071 1032.76L983.836 1032.76C983.776 1033.14 983.704 1033.57 983.619 1034.06 983.535 1034.56 983.442 1035.09 983.339 1035.66 983.237 1036.23 983.129 1036.82 983.014 1037.42 982.9 1038.02 982.782 1038.63 982.662 1039.23 982.554 1039.69 982.424 1040.22 982.273 1040.83 982.123 1041.44 981.969 1042.09 981.813 1042.78 981.656 1043.47 981.497 1044.17 981.334 1044.88 981.171 1045.59 981.024 1046.27 980.891 1046.92 980.759 1047.56 980.654 1048.15 980.575 1048.68 980.497 1049.21 980.458 1049.62 980.458 1049.92 980.458 1050.43 980.602 1050.79 980.891 1051 981.18 1051.21 981.674 1051.34 982.373 1051.39L982.174 1052.49 975.435 1052.49 975.67 1051.39C976.032 1051.33 976.333 1051.26 976.574 1051.17 976.814 1051.09 977.025 1050.92 977.206 1050.66 977.387 1050.4 977.558 1050.01 977.721 1049.49 977.883 1048.97 978.067 1048.24 978.272 1047.31L981.235 1034.13C981.343 1033.65 981.424 1033.2 981.479 1032.79 981.533 1032.37 981.56 1032 981.56 1031.68 981.56 1031.15 981.421 1030.77 981.144 1030.55 980.867 1030.33 980.361 1030.21 979.627 1030.2Z" fill-rule="evenodd"/><text fill="#000000" fill-opacity="0" font-family="Arial,Arial_MSFontService,sans-serif" font-size="23.4321" x="975.435" y="1049.56">ğ‘ğ¿</text><path d="M913.742 1090.36C914.767 1090.36 915.581 1090.65 916.183 1091.24 916.785 1091.82 917.086 1092.61 917.086 1093.58 917.086 1094.59 916.891 1095.67 916.5 1096.83L916.72 1096.93C917.42 1095.97 918.116 1095.09 918.807 1094.29 919.499 1093.49 920.215 1092.81 920.956 1092.23 921.696 1091.65 922.47 1091.19 923.275 1090.86 924.081 1090.53 924.94 1090.36 925.851 1090.36 927.397 1090.36 928.585 1090.8 929.415 1091.69 930.245 1092.58 930.661 1093.84 930.661 1095.49 930.661 1096.48 930.473 1097.83 930.099 1099.54L924.557 1124.64 920.553 1124.64 925.9 1100.39C926.03 1099.78 926.148 1099.08 926.254 1098.31 926.36 1097.53 926.412 1096.9 926.412 1096.41 926.412 1095.28 926.209 1094.46 925.802 1093.96 925.395 1093.46 924.777 1093.22 923.947 1093.22 923.084 1093.22 922.083 1093.71 920.944 1094.69 919.804 1095.68 918.751 1096.93 917.782 1098.45 916.814 1099.97 916.207 1101.31 915.963 1102.47L913.449 1114.09 909.225 1114.09 912.936 1097.68C913.017 1097.31 913.095 1096.86 913.168 1096.33 913.241 1095.8 913.278 1095.33 913.278 1094.93 913.278 1094.36 913.176 1093.92 912.973 1093.62 912.769 1093.32 912.431 1093.17 911.959 1093.17 911.569 1093.17 911.113 1093.31 910.592 1093.61 910.071 1093.9 909.485 1094.41 908.834 1095.14L907.467 1093.78C908.948 1092.39 910.108 1091.48 910.946 1091.03 911.784 1090.58 912.716 1090.36 913.742 1090.36Z" fill-rule="evenodd"/><text fill="#000000" fill-opacity="0" font-family="Arial,Arial_MSFontService,sans-serif" font-size="34.2773" x="907.467" y="1120.35">ğœ‚</text><path d="M938.982 1100.95 946.606 1100.95 946.407 1102.03C945.986 1102.14 945.651 1102.23 945.404 1102.31 945.158 1102.39 944.947 1102.56 944.772 1102.81 944.597 1103.06 944.441 1103.44 944.302 1103.94 944.164 1104.44 943.986 1105.17 943.769 1106.13L940.102 1122.46 944.817 1122.46C945.48 1122.46 946.052 1122.41 946.534 1122.29 947.015 1122.18 947.461 1121.94 947.87 1121.57 948.28 1121.2 948.674 1120.68 949.054 1120.01 949.433 1119.33 949.852 1118.44 950.309 1117.32L952.297 1117.32 950.436 1124.38 934.519 1124.38 934.718 1123.28C935.091 1123.22 935.399 1123.14 935.64 1123.05 935.88 1122.96 936.094 1122.79 936.281 1122.53 936.468 1122.27 936.636 1121.88 936.787 1121.36 936.937 1120.84 937.115 1120.12 937.32 1119.19L940.283 1106.02C940.403 1105.49 940.493 1105.02 940.554 1104.61 940.614 1104.21 940.644 1103.86 940.644 1103.57 940.644 1103.04 940.505 1102.66 940.228 1102.44 939.951 1102.22 939.445 1102.1 938.711 1102.09Z" fill-rule="evenodd"/><text fill="#000000" fill-opacity="0" font-family="Arial,Arial_MSFontService,sans-serif" font-size="23.4321" x="934.519" y="1121.45">ğ¿</text><path d="M838.5 1064.36 932 1064.36 1025.5 1064.36 1025.5 1067.36 932 1067.36 838.5 1067.36Z" fill-rule="evenodd"/><path d="M1084.64 1063.76C1083.62 1063.76 1082.81 1064.1 1082.22 1064.78 1081.62 1065.46 1081.2 1066.43 1080.96 1067.67 1080.71 1068.92 1080.59 1070.46 1080.59 1072.3 1080.59 1075.46 1080.92 1077.75 1081.57 1079.18 1082.22 1080.62 1083.25 1081.33 1084.67 1081.33 1086 1081.33 1086.99 1080.67 1087.64 1079.33 1088.28 1078 1088.6 1075.86 1088.6 1072.93 1088.6 1069.81 1088.28 1067.5 1087.64 1066 1086.99 1064.5 1086 1063.76 1084.64 1063.76ZM1084.67 1062C1086.08 1062 1087.27 1062.25 1088.23 1062.75 1089.19 1063.26 1089.97 1063.96 1090.56 1064.87 1091.16 1065.77 1091.58 1066.85 1091.83 1068.11 1092.09 1069.37 1092.21 1070.76 1092.21 1072.28 1092.21 1075.84 1091.54 1078.53 1090.2 1080.36 1088.86 1082.18 1086.92 1083.09 1084.4 1083.09 1081.91 1083.09 1080.05 1082.23 1078.82 1080.5 1077.59 1078.78 1076.98 1076.18 1076.98 1072.72 1076.98 1070.31 1077.31 1068.3 1077.97 1066.7 1078.63 1065.09 1079.53 1063.91 1080.68 1063.14 1081.82 1062.38 1083.16 1062 1084.67 1062ZM1060.52 1048.4C1059.5 1048.4 1058.69 1048.74 1058.09 1049.42 1057.5 1050.11 1057.08 1051.07 1056.84 1052.32 1056.59 1053.56 1056.47 1055.1 1056.47 1056.94 1056.47 1060.1 1056.8 1062.4 1057.45 1063.83 1058.1 1065.26 1059.13 1065.98 1060.55 1065.98 1061.88 1065.98 1062.87 1065.31 1063.51 1063.97 1064.16 1062.64 1064.48 1060.51 1064.48 1057.58 1064.48 1054.45 1064.16 1052.14 1063.51 1050.64 1062.87 1049.15 1061.87 1048.4 1060.52 1048.4ZM1081.57 1047.03 1085.11 1047.03 1063.57 1082.7 1059.99 1082.7ZM1060.55 1046.64C1061.96 1046.64 1063.15 1046.89 1064.11 1047.4 1065.07 1047.9 1065.85 1048.61 1066.44 1049.51 1067.04 1050.41 1067.46 1051.5 1067.71 1052.76 1067.97 1054.02 1068.09 1055.41 1068.09 1056.92 1068.09 1060.48 1067.42 1063.18 1066.08 1065 1064.73 1066.82 1062.8 1067.73 1060.28 1067.73 1057.79 1067.73 1055.93 1066.87 1054.7 1065.15 1053.47 1063.42 1052.86 1060.83 1052.86 1057.36 1052.86 1054.95 1053.19 1052.94 1053.85 1051.34 1054.51 1049.74 1055.41 1048.55 1056.56 1047.79 1057.7 1047.02 1059.03 1046.64 1060.55 1046.64Z" fill-rule="evenodd"/><text fill="#000000" fill-opacity="0" font-family="Arial,Arial_MSFontService,sans-serif" font-size="36.4502" x="1052.86" y="1078.53">%</text></g></svg>